<svg id="Layer_1" data-name="Layer 1" xmlns="http://www.w3.org/2000/svg" xmlns:xlink="http://www.w3.org/1999/xlink" viewBox="0 0 851.46 804.68"><defs><style>.cls-1{fill:none;}.cls-2{clip-path:url(#clip-path);}.cls-3{fill:#262d2f;}.cls-4{fill:#faa51a;}</style><clipPath id="clip-path"><rect class="cls-1" x="87.76" y="64.37" width="675.95" height="675.95"/></clipPath></defs><g class="cls-2"><g id="Grupo_de_m치scara_4" data-name="Grupo de m치scara 4"><g id="Layer_2" data-name="Layer 2"><g id="Heart"><path id="Caminho_36" data-name="Caminho 36" class="cls-3" d="M710.48,164.69c-73.76-73.39-193-73.39-266.73,0l-18,18.16-17.52-18.07c-73.78-73.73-193.36-73.73-267.14,0a194.38,194.38,0,0,0,3.79,271.16l13.69,13.7L388.16,679.8a53.14,53.14,0,0,0,75,0L693,450.05l13.7-13.7A195,195,0,0,0,710.48,164.69ZM696.79,306.12a126.12,126.12,0,0,1-37.93,80.37l-14.34,15.16-219.11,219-219.08-219-14-14.52a126.34,126.34,0,0,1-38.07-80.37,120.47,120.47,0,0,1,128.08-128.3,125.58,125.58,0,0,1,80.33,38.19l14.66,14.52,25.24,25.4,36.14,36.14a35.77,35.77,0,0,0,50.52-50.66l-13-13.69L491.6,213.7a120.49,120.49,0,0,1,205.38,93Z"/><rect id="Ret칙ngulo_27" data-name="Ret칙ngulo 27" class="cls-4" x="275.06" y="299.26" width="68.47" height="155.27" rx="34.22" transform="translate(-175.91 329.09) rotate(-45)"/></g></g></g></g></svg>