<svg id="Layer_1" data-name="Layer 1" xmlns="http://www.w3.org/2000/svg" viewBox="0 0 851.46 804.68"><defs><style>.cls-1{fill:#fba919;}</style></defs><path id="Caminho_43" data-name="Caminho 43" class="cls-1" d="M688.32,53.92H584.5a33.46,33.46,0,0,0-31.61,22.62l-44.29,130H346.33a17.68,17.68,0,0,0-17.72,17.62V474.56L178.46,624.71l-23.17,23.17a10.94,10.94,0,0,0,0,15.38,153.09,153.09,0,0,0,173.61,30,1.21,1.21,0,0,0,.14.67,17.82,17.82,0,0,0,17.31,14.16h226.2a17.69,17.69,0,0,0,17.31-14.16,15.16,15.16,0,0,0,.4-3.55v-466a17.67,17.67,0,0,0-17.62-17.72h-40.9l42-122.9a11.58,11.58,0,0,1,11-7.9h103.7a10.9,10.9,0,0,0,0-21.8ZM501.09,228.34l-40.81,120H350.41v-120ZM568.3,642.6h-180A152.6,152.6,0,0,0,371,447.46a11,11,0,0,0-15.39,0l-5.31,5.31V370h218ZM274.1,581.67,324.39,632A97.6,97.6,0,0,1,274.1,652.8Zm65.67,34.88-50.24-50.27h71.13A95,95,0,0,1,339.77,616.55Zm-50.29-72,50.29-50.29a97.57,97.57,0,0,1,20.84,50.29Zm-37.21,37.2v71.13A96,96,0,0,1,202,632ZM178.7,655.25l7.78-7.78A119.88,119.88,0,0,0,355.3,478.64l7.78-7.77a130.76,130.76,0,0,1-5.3,174.82l-2,2a133.19,133.19,0,0,1-21.61,17.58c-.26.14-.55.4-.81.55A131.47,131.47,0,0,1,178.8,655.22Zm389.72,30.94h-218V680.6A148.64,148.64,0,0,0,370,664.37h198.4Zm0-457.85v120H483.25l40.81-120Z"/></svg>