<svg id="Layer_1" data-name="Layer 1" xmlns="http://www.w3.org/2000/svg" viewBox="0 0 851.46 804.68"><defs><style>.cls-1{fill:#262d2f;}.cls-2{fill:#faa51a;}</style></defs><g id="bulsula"><path id="Caminho_24" data-name="Caminho 24" class="cls-1" d="M677.63,150.85A340,340,0,0,0,436.26,50.75h-.54A341.42,341.42,0,0,0,219,128.46a13.93,13.93,0,1,0,17.69,21.44,313.41,313.41,0,0,1,199-71.36h.53C609,79,748.62,219.38,748.16,392.1S607.32,704.46,434.6,704,122.24,563.16,122.7,390.44a312.67,312.67,0,0,1,18.37-104.78,13.94,13.94,0,1,0-26.15-9.39C50.83,453.66,142.68,649.41,320.06,713.49S693.2,685.73,757.29,508.35a341.52,341.52,0,0,0-79.66-357.48Z"/><path id="Caminho_25" data-name="Caminho 25" class="cls-2" d="M536.71,159.57c-128.4-55.5-277.48,3.59-333,132s3.59,277.49,132,333,277.49-3.59,333-132A253.35,253.35,0,0,0,689.5,392.11a13.94,13.94,0,0,0-13.93-13.94H624.8A13.93,13.93,0,0,0,622.64,406a13,13,0,0,0,2.16,0h36.47A225.71,225.71,0,0,1,450.19,617.12V580.64a13.93,13.93,0,0,0-27.78,0v36.48A225.71,225.71,0,0,1,211.25,406h36.47a13.93,13.93,0,0,0,2.16-27.78,13,13,0,0,0-2.16,0H211.25A225.71,225.71,0,0,1,422.33,167.09v36.48a13.93,13.93,0,0,0,27.78,0V167.09a223.34,223.34,0,0,1,75.53,18,13.93,13.93,0,0,0,13-24.64,14.45,14.45,0,0,0-2-.86Z"/><path id="Caminho_26" data-name="Caminho 26" class="cls-1" d="M534.86,275.59,411.91,325.38a71.17,71.17,0,0,0-40.48,37.93,13.91,13.91,0,0,0-.93,1.85l-50.91,125.7A13.93,13.93,0,0,0,337.7,509l125.71-50.89a13.32,13.32,0,0,0,1.73-.87,71,71,0,0,0,36.8-37.52c0-.1.1-.18.14-.28L553,293.7a13.93,13.93,0,0,0-18.11-18.11Zm-98.49,73.32a43.2,43.2,0,1,1-17,3.46h.18l1-.4A43.06,43.06,0,0,1,436.37,348.91ZM375,428a71.22,71.22,0,0,0,25.49,25.51L357.6,470.88Zm122.6-71.87a71.41,71.41,0,0,0-25.14-25.35l42.46-17.21Z"/></g></svg>