<svg id="Layer_1" data-name="Layer 1" xmlns="http://www.w3.org/2000/svg" viewBox="0 0 851.46 804.68"><defs><style>.cls-1{fill:#ee4127;}.cls-2{fill:#fff;}.cls-3{fill:none;stroke:#ee4127;}</style></defs><g id="Componente_8_7" data-name="Componente 8 7"><path id="Ret창ngulo_34" data-name="Ret창ngulo 34" class="cls-1" d="M250.91,354h482c2.22,0,4,1.11,4,2.47h0c0,1.37-1.8,2.48-4,2.48H250.91c-2.22,0-4-1.11-4-2.48h0C246.89,355.07,248.69,354,250.91,354Z"/><g id="Elipse_7" data-name="Elipse 7"><ellipse class="cls-2" cx="756.96" cy="356.43" rx="4.02" ry="2.47"/><ellipse class="cls-3" cx="756.96" cy="356.43" rx="2.01" ry="1.24"/></g><g id="Elipse_8" data-name="Elipse 8"><ellipse class="cls-2" cx="744.91" cy="356.43" rx="4.02" ry="2.47"/><ellipse class="cls-3" cx="744.91" cy="356.43" rx="2.01" ry="1.24"/></g></g><path id="Ret창ngulo_35" data-name="Ret창ngulo 35" class="cls-1" d="M74.19,354H178.61c2.22,0,4,1.11,4,2.47h0c0,1.37-1.8,2.48-4,2.48H74.19c-2.22,0-4-1.11-4-2.48h0C70.17,355.07,72,354,74.19,354Z"/></svg>