<svg id="OBJECTS" xmlns="http://www.w3.org/2000/svg" viewBox="0 0 750 500"><defs><style>.cls-1{fill:#ec9b1a;}.cls-13,.cls-14,.cls-2,.cls-5{fill:#fff;}.cls-11,.cls-13,.cls-14,.cls-2,.cls-24,.cls-27,.cls-28,.cls-29,.cls-3,.cls-35,.cls-4,.cls-6{stroke:#000056;}.cls-14,.cls-2,.cls-28,.cls-29,.cls-3,.cls-31,.cls-35,.cls-4{stroke-miterlimit:10;}.cls-11,.cls-19,.cls-20,.cls-24,.cls-28,.cls-29,.cls-3,.cls-31,.cls-34,.cls-36,.cls-6,.cls-9{fill:none;}.cls-26,.cls-27,.cls-4{fill:#f08a37;}.cls-11,.cls-13,.cls-19,.cls-20,.cls-24,.cls-27,.cls-28,.cls-34,.cls-36,.cls-6,.cls-9{stroke-linecap:round;}.cls-11,.cls-13,.cls-19,.cls-20,.cls-24,.cls-27,.cls-34,.cls-36,.cls-6,.cls-9{stroke-linejoin:round;}.cls-13,.cls-14,.cls-20,.cls-27,.cls-28,.cls-29,.cls-35,.cls-36,.cls-6,.cls-9{stroke-width:0.75px;}.cls-7{fill:#4b42ff;}.cls-8{fill:#000056;}.cls-9{stroke:#fff;}.cls-10{fill:#fb7968;}.cls-11,.cls-19{stroke-width:0.5px;}.cls-12{fill:#c74934;}.cls-15{fill:#dd5a57;}.cls-16{fill:#d66ec3;}.cls-17{fill:#e04c38;}.cls-18{fill:#1b1b87;}.cls-19{stroke:#d1d1d3;}.cls-20{stroke:#4b42ff;}.cls-21{fill:#af675d;}.cls-22{fill:#262d2f;}.cls-23{fill:#93463e;}.cls-25{fill:#aa4b4b;}.cls-30{fill:#33c;}.cls-31{stroke:#262d2f;}.cls-32{fill:#270dd8;}.cls-33,.cls-35{fill:#f3a8de;}.cls-34{stroke:#353535;stroke-width:4px;}.cls-36{stroke:#000;}</style></defs><ellipse class="cls-1" cx="576.47" cy="419.03" rx="59.35" ry="46.98" transform="translate(-61.44 101.26) rotate(-9.53)"/><circle class="cls-1" cx="693.48" cy="287.72" r="27.78" transform="translate(-57.3 292.63) rotate(-22.91)"/><path class="cls-1" d="M71.67,337.69C49.54,307.26,16,246.94,57.24,182.7s91.57-31.93,114.33-22,82.2,37.76,131.23,26.57,81-45.55,115.38-86.67,110.61-82.44,182.27-52,98.31,121.18,60.94,199.31-67.71,93.32-104,89.75-75.27-7.42-115.5,40.63-171.35,68-242.75,46.66C110.68,398.48,86.3,357.79,71.67,337.69Z"/><circle class="cls-1" cx="57.24" cy="119.62" r="23.47"/><circle class="cls-1" cx="51.84" cy="392.5" r="32.75" transform="translate(-262.36 151.62) rotate(-45)"/><polygon class="cls-2" points="565.17 354.98 587.68 378.32 607.62 363.63 584.55 337.33 565.17 354.98"/><line class="cls-3" x1="576.12" y1="359.25" x2="591.92" y2="375.64"/><line class="cls-3" x1="580.7" y1="355.69" x2="596.31" y2="371.5"/><line class="cls-3" x1="585.1" y1="352.23" x2="600.45" y2="369.18"/><line class="cls-3" x1="588.43" y1="349.38" x2="604.36" y2="366.03"/><polygon class="cls-4" points="575.81 366.04 594.35 348.71 590.07 343.83 571.57 361.63 575.81 366.04"/><polygon class="cls-5" points="608.25 356.45 582.04 381.61 587.98 388.6 585.79 423.47 632.69 379.93 608.25 356.45"/><line class="cls-6" x1="581.24" y1="403.42" x2="591.76" y2="407.64"/><line class="cls-6" x1="583.6" y1="395.87" x2="594.13" y2="400.09"/><path class="cls-6" d="M586.3,391.11s-19.47,7.82-21,1.64C562.84,382.8,586.3,391.11,586.3,391.11Z"/><line class="cls-6" x1="570.16" y1="380.65" x2="586.92" y2="391"/><path class="cls-7" d="M615.3,378.24a12.72,12.72,0,0,1,4-11.21l-1.44-1.38A14.69,14.69,0,0,0,622,389.86l1.61-1.5A12.74,12.74,0,0,1,615.3,378.24Z"/><polygon class="cls-6" points="608.25 356.45 582.04 381.61 587.98 388.6 585.79 423.47 632.69 379.93 608.25 356.45"/><path class="cls-8" d="M556.65,366.77S513.34,335.1,513,299.62s35-77.51,35-77.51l42.17,4.61-29.28,71.63,36,37.42Z"/><polyline class="cls-9" points="590.17 226.72 560.89 298.35 596.9 335.77"/><line class="cls-9" x1="548.58" y1="298.9" x2="560.89" y2="298.35"/><line class="cls-9" x1="549.28" y1="360.75" x2="590.18" y2="328.78"/><polygon class="cls-2" points="647.45 315.47 679.85 316.57 683.96 292.15 649.09 289.31 647.45 315.47"/><line class="cls-3" x1="658.28" y1="310.92" x2="681.03" y2="311.7"/><line class="cls-3" x1="659.09" y1="305.18" x2="681.31" y2="305.67"/><line class="cls-3" x1="659.84" y1="299.63" x2="682.66" y2="301.13"/><line class="cls-3" x1="660.26" y1="295.26" x2="683.29" y2="296.15"/><polygon class="cls-4" points="662.78 316.01 664.05 290.66 657.58 290.14 656.66 315.8 662.78 316.01"/><polygon class="cls-5" points="679.42 286.56 678.09 322.87 687.22 323.75 709.9 350.33 713.31 286.43 679.42 286.56"/><line class="cls-6" x1="692.68" y1="339.09" x2="703.18" y2="334.8"/><line class="cls-6" x1="689.13" y1="332.02" x2="699.63" y2="327.73"/><path class="cls-6" d="M687.76,326.72s-8.54,19.17-14,15.79C665.12,337.07,687.76,326.72,687.76,326.72Z"/><line class="cls-6" x1="668.88" y1="330.44" x2="688.12" y2="326.21"/><path class="cls-7" d="M699.64,297.31a12.74,12.74,0,0,1-5-10.81h-2A14.69,14.69,0,0,0,712.53,301l.12-2.2A12.75,12.75,0,0,1,699.64,297.31Z"/><polygon class="cls-6" points="679.42 286.56 678.09 322.87 687.22 323.75 709.9 350.33 713.31 286.43 679.42 286.56"/><path class="cls-8" d="M567.53,223.42s-8,60.85,2.33,76.75c15.24,23.33,79.23,30.1,79.23,30.1l8.71-51.43-41.36-7.21,1.32-36.47v-9.84Z"/><path class="cls-9" d="M657.8,278.84l-41.36-7.21,1.32-36.47v-9.84l-50.23-1.9s-8,60.85,2.33,76.75c2.83,4.33,7.45,8.12,13.1,11.41"/><line class="cls-9" x1="616.44" y1="271.63" x2="609.22" y2="279.52"/><line class="cls-9" x1="648.38" y1="277.16" x2="639.42" y2="328.48"/><path class="cls-10" d="M508.22,99.77s-5.89-12.07-5.9-17.37,1.46-15.16-.2-15.44-3.49,6.75-3.49,6.75-1.89-11.18-3.76-11.54-1.37,9.23-1.37,9.23-.32-9-2.55-9S489.44,72,489.44,72s-1-8.95-3.16-8.85-.77,9.8-.77,9.8-1.13-8.68-3-8.34-2.06,5.06-1.24,16.55,5.55,23.19,6.47,26.75S508.22,99.77,508.22,99.77Z"/><line class="cls-11" x1="493.02" y1="66.78" x2="493.78" y2="74.1"/><line class="cls-11" x1="488.96" y1="67.4" x2="489.67" y2="74.16"/><line class="cls-11" x1="485.04" y1="68.44" x2="485.75" y2="75.2"/><path class="cls-11" d="M498.63,73.71a4.94,4.94,0,0,0-2.56,3.62"/><path class="cls-5" d="M548.85,191.84S482,168.66,482,100.57L509.5,90.3s21.76,42.83,59.31,50.75Z"/><rect class="cls-12" x="487.63" y="107.35" width="5.46" height="5.46" transform="translate(120.74 -230.43) rotate(30)"/><rect class="cls-12" x="498.2" y="117.51" width="5.46" height="5.46" transform="translate(127.23 -234.36) rotate(30)"/><rect class="cls-12" x="508.33" y="99.98" width="5.46" height="5.46" transform="translate(119.82 -241.77) rotate(30)"/><rect class="cls-12" x="514.39" y="131.49" width="5.46" height="5.46" transform="translate(136.39 -240.58) rotate(30)"/><rect class="cls-12" x="497.15" y="134.61" width="5.46" height="5.46" transform="translate(135.64 -231.54) rotate(30)"/><rect class="cls-12" x="515.25" y="158" width="5.46" height="5.46" transform="translate(149.76 -237.46) rotate(30)"/><rect class="cls-12" x="529.48" y="144.51" width="5.46" height="5.46" transform="translate(144.92 -246.38) rotate(30)"/><rect class="cls-12" x="533.77" y="164.42" width="5.46" height="5.46" transform="translate(155.45 -245.86) rotate(30)"/><rect class="cls-12" x="530.04" y="126.92" width="5.46" height="5.46" transform="translate(136.2 -249.02) rotate(30)"/><path class="cls-12" d="M524.65,112.21c-1.24-1.45-2.41-2.88-3.51-4.27l-.24-.14-2.73,4.72,4.73,2.74Z"/><path class="cls-12" d="M485.76,127.32c.39,1.34.82,2.66,1.27,4l2.06,1.18,2.73-4.73L487.09,125Z"/><path class="cls-12" d="M551.21,134.45q-2.41-1.32-4.7-2.79l-1.81,3.13,4.73,2.73Z"/><path class="cls-12" d="M524.15,178.51l1.24-2.15-4.73-2.73-.94,1.62Q522,177,524.15,178.51Z"/><path class="cls-12" d="M535.43,185.57c1.74,1,3.36,1.8,4.84,2.53l1.18-2-4.73-2.73Z"/><path class="cls-6" d="M548.85,191.84S482,168.66,482,100.57L509.5,90.3s21.76,42.83,59.31,50.75Z"/><path class="cls-13" d="M509.5,90.3,482,100.57a97,97,0,0,0,.61,11l31.67-13.22C511.12,93.5,509.5,90.3,509.5,90.3Z"/><line class="cls-6" x1="505.91" y1="91.63" x2="509.84" y2="100.15"/><line class="cls-6" x1="502.52" y1="92.9" x2="505.91" y2="101.79"/><line class="cls-6" x1="484.7" y1="99.55" x2="487.02" y2="109.67"/><line class="cls-6" x1="488.49" y1="98.13" x2="491.59" y2="107.76"/><line class="cls-6" x1="493.69" y1="96.19" x2="496.92" y2="105.54"/><line class="cls-6" x1="498.11" y1="94.54" x2="501.66" y2="103.56"/><path class="cls-10" d="M641,95.07s1-13.39-1-18.32-7-13.54-5.54-14.41,5.74,5,5.74,5-2.38-11.08-.78-12.1,4.69,8.06,4.69,8.06-3-8.47-1-9.29,5,8.36,5,8.36-2.42-8.67-.34-9.39,4.35,8.82,4.35,8.82-2.17-8.49-.32-8.86,3.8,3.94,7.28,14.92,3.45,23.58,3.91,27.24S641,95.07,641,95.07Z"/><line class="cls-11" x1="642.89" y1="58.8" x2="644.9" y2="65.88"/><line class="cls-11" x1="646.9" y1="57.87" x2="648.75" y2="64.42"/><line class="cls-11" x1="650.93" y1="57.38" x2="652.77" y2="63.92"/><path class="cls-11" d="M640.25,67.31s3,1.25,4.32,3.14"/><path class="cls-5" d="M593.25,142.08s45.5-10.72,43.55-54h29s9.45,38.3-9.12,72-44,29.34-44,29.34Z"/><rect class="cls-12" x="624.27" y="139.87" width="5.46" height="5.46" transform="translate(155.3 -294.4) rotate(30)"/><rect class="cls-12" x="644.5" y="132.41" width="5.46" height="5.46" transform="translate(154.28 -305.51) rotate(30)"/><rect class="cls-12" x="640.23" y="149.73" width="5.46" height="5.46" transform="translate(162.36 -301.05) rotate(30)"/><rect class="cls-12" x="642.61" y="165.52" width="5.46" height="5.46" transform="translate(170.58 -300.13) rotate(30)"/><rect class="cls-12" x="624.27" y="161.79" width="5.46" height="5.46" transform="translate(166.27 -291.46) rotate(30)"/><rect class="cls-12" x="615.72" y="176.25" width="5.46" height="5.46" transform="translate(172.34 -285.24) rotate(30)"/><rect class="cls-12" x="640.23" y="113.8" width="5.46" height="5.46" transform="translate(144.4 -305.86) rotate(30)"/><rect class="cls-12" x="650.85" y="103.44" width="5.46" height="5.46" transform="translate(140.64 -312.56) rotate(30)"/><rect class="cls-12" x="658.75" y="115.38" width="5.46" height="5.46" transform="translate(147.68 -314.92) rotate(30)"/><path class="cls-12" d="M635.83,101.32l1.92,1.11,2.73-4.73-3.82-2.2A50,50,0,0,1,635.83,101.32Z"/><path class="cls-12" d="M667.28,96.75,664.2,95l-2.73,4.73,4.73,2.73,1.44-2.48C667.53,98.81,667.4,97.75,667.28,96.75Z"/><path class="cls-12" d="M628,124.69l2.73-4.73-2.32-1.34A47.61,47.61,0,0,1,625,123Z"/><path class="cls-12" d="M664.2,127.78l-2.73,4.73,4.39,2.53c.41-1.92.75-3.83,1-5.71Z"/><path class="cls-12" d="M605.87,137.86l4.73,2.73,2.73-4.73L611,134.49c-1.57.94-3.11,1.78-4.59,2.53Z"/><path class="cls-12" d="M661.39,150l-3.19-1.85-2.73,4.73,3.75,2.17C660,153.4,660.73,151.71,661.39,150Z"/><path class="cls-12" d="M634.63,179l-2.73,4.73,1.7,1a43.85,43.85,0,0,0,5.19-3.31Z"/><path class="cls-6" d="M593.25,142.08s45.5-10.72,43.55-54h29s9.45,38.3-9.12,72-44,29.34-44,29.34Z"/><path class="cls-13" d="M667.39,97.7a85,85,0,0,0-1.58-9.57h-29a55.68,55.68,0,0,1-.27,8.66Z"/><line class="cls-6" x1="662.15" y1="88.13" x2="662.72" y2="97.56"/><line class="cls-6" x1="657.83" y1="88.2" x2="657.83" y2="97.39"/><line class="cls-6" x1="648.65" y1="88.2" x2="648.65" y2="97.04"/><line class="cls-6" x1="644.39" y1="88.11" x2="644.39" y2="96.9"/><line class="cls-6" x1="640.48" y1="88.13" x2="640.15" y2="96.9"/><line class="cls-6" x1="653" y1="88.2" x2="653" y2="97.17"/><polygon class="cls-5" points="548.24 163.42 535.03 236.77 620.77 241.27 615.16 166.91 612.87 146.84 565.33 143.25 549.36 148.09 548.24 163.42"/><rect class="cls-12" x="551.88" y="149.73" width="5.46" height="5.46" transform="translate(150.53 -256.87) rotate(30)"/><rect class="cls-12" x="599.08" y="173.03" width="5.46" height="5.46" transform="translate(1012.94 649.08) rotate(-147.26)"/><rect class="cls-12" x="588.47" y="188.95" width="5.46" height="5.46" transform="translate(984.81 672.66) rotate(-147.26)"/><rect class="cls-12" x="563.17" y="188.95" width="5.46" height="5.46" transform="translate(938.22 658.98) rotate(-147.26)"/><rect class="cls-12" x="549.3" y="201.39" width="5.46" height="5.46" transform="translate(905.95 674.37) rotate(-147.26)"/><rect class="cls-12" x="601.88" y="202.67" width="5.46" height="5.46" transform="translate(1002.08 705.18) rotate(-147.26)"/><rect class="cls-12" x="594.38" y="217.72" width="5.46" height="5.46" transform="translate(980.13 728.82) rotate(-147.26)"/><rect class="cls-12" x="578.69" y="228.98" width="5.46" height="5.46" transform="translate(945.14 741.07) rotate(-147.26)"/><rect class="cls-12" x="549.3" y="227.42" width="5.46" height="5.46" transform="translate(891.87 722.3) rotate(-147.26)"/><rect class="cls-12" x="608.65" y="230.9" width="5.46" height="5.46" transform="translate(999.26 760.8) rotate(-147.26)"/><rect class="cls-12" x="561.86" y="215.34" width="5.46" height="5.46" transform="translate(921.53 706.84) rotate(-147.26)"/><rect class="cls-12" x="576.23" y="201.88" width="5.46" height="5.46" transform="translate(955.27 689.85) rotate(-147.26)"/><rect class="cls-12" x="569.09" y="154.14" width="5.46" height="5.46" transform="translate(155.04 -264.89) rotate(30)"/><rect class="cls-12" x="550.74" y="172.05" width="5.46" height="5.46" transform="translate(161.55 -253.32) rotate(30)"/><rect class="cls-12" x="577.3" y="172.12" width="5.46" height="5.46" transform="translate(165.14 -266.59) rotate(30)"/><rect class="cls-12" x="587.86" y="156.13" width="5.46" height="5.46" transform="translate(158.56 -274.01) rotate(30)"/><rect class="cls-12" x="608.1" y="154.14" width="5.46" height="5.46" transform="translate(160.27 -284.4) rotate(30)"/><polygon class="cls-12" points="616.91 193.19 617.12 192.86 616.64 186.53 615.27 185.65 612.31 190.24 616.91 193.19"/><polygon class="cls-12" points="618.93 216.85 616.09 221.27 619.43 223.42 618.93 216.85"/><polygon class="cls-12" points="540.39 221.84 543.34 217.25 539.04 214.48 537.99 220.3 540.39 221.84"/><polygon class="cls-12" points="543.16 191.6 545.65 193.19 548.6 188.6 544.21 185.78 543.16 191.6"/><polygon class="cls-13" points="535.03 236.77 620.77 241.27 620.11 232.39 536.57 228.23 535.03 236.77"/><line class="cls-6" x1="540.05" y1="228.4" x2="539.08" y2="236.83"/><line class="cls-6" x1="615.81" y1="232.17" x2="615.81" y2="241.01"/><line class="cls-6" x1="610.91" y1="231.93" x2="610.67" y2="240.74"/><line class="cls-6" x1="544.83" y1="228.83" x2="544.2" y2="237.25"/><line class="cls-6" x1="549.36" y1="228.86" x2="548.79" y2="237.49"/><line class="cls-6" x1="553.47" y1="229.07" x2="552.92" y2="237.71"/><line class="cls-6" x1="557.43" y1="229.33" x2="556.89" y2="237.92"/><line class="cls-6" x1="561.67" y1="229.48" x2="561.29" y2="237.92"/><line class="cls-6" x1="565.84" y1="229.94" x2="565.63" y2="238.38"/><line class="cls-6" x1="570.11" y1="229.94" x2="569.86" y2="238.6"/><line class="cls-6" x1="606.52" y1="231.71" x2="606.01" y2="240.49"/><line class="cls-6" x1="602.22" y1="231.5" x2="601.68" y2="240.27"/><line class="cls-6" x1="597.69" y1="231.27" x2="597.11" y2="240.03"/><line class="cls-6" x1="592.91" y1="231.24" x2="592.34" y2="239.53"/><line class="cls-6" x1="588.01" y1="230.79" x2="587.56" y2="239.53"/><line class="cls-6" x1="584.26" y1="230.6" x2="583.82" y2="239.33"/><line class="cls-6" x1="580.4" y1="230.41" x2="580.02" y2="239.13"/><line class="cls-6" x1="575.19" y1="230.15" x2="574.86" y2="238.6"/><polyline class="cls-6" points="548.24 163.42 535.03 236.77 620.77 241.27 615.16 166.91"/><ellipse class="cls-14" cx="582.89" cy="144.85" rx="20.64" ry="13.35" transform="translate(-1.27 5.22) rotate(-0.51)"/><path class="cls-10" d="M573.72,106.87l6.76.63c4.5.42,7.78,5,7.3,10.07l-1,10.48a8.66,8.66,0,0,1-.12.87,3.93,3.93,0,0,1,0,1l-.6,6.38,0,.36-.6,6.37a4.23,4.23,0,0,1-4.6,3.82l-2.68-.25a4.25,4.25,0,0,1-3.82-4.6l.53-5.65L571,136c-4.49-.42-7.78-5-7.3-10.07l1-10.48C565.16,110.29,569.23,106.45,573.72,106.87Z"/><path class="cls-8" d="M577.89,120.1a1.53,1.53,0,1,1-1.38-1.67A1.53,1.53,0,0,1,577.89,120.1Z"/><path class="cls-8" d="M567.93,118.94a1.31,1.31,0,1,1-1.18-1.42A1.3,1.3,0,0,1,567.93,118.94Z"/><path class="cls-11" d="M568.81,125.31s.55,2.31,2.16,2.61,3-1.37,3.26-2.76Z"/><path class="cls-15" d="M582.66,126.2a3.8,3.8,0,1,1-3.43-4.14A3.8,3.8,0,0,1,582.66,126.2Z"/><path class="cls-15" d="M564.76,122a2.21,2.21,0,0,0-.68,0l-.37,3.92a9,9,0,0,0,0,1.72,2.36,2.36,0,0,0,.53.1,2.89,2.89,0,0,0,.54-5.76Z"/><polygon class="cls-16" points="571.22 117.94 571.05 123.16 568.71 121.42 571.22 117.94"/><line class="cls-6" x1="574.83" y1="116.53" x2="579.15" y2="117.52"/><line class="cls-6" x1="565.83" y1="115.39" x2="569.43" y2="115.39"/><path class="cls-17" d="M585.35,124.49l-.48-8.32s-23,.72-29.31-11,1.82-15.36,5.5-14.38,7.56,6.74,7.56,6.74-3-5.06.52-5.49,7.06,3.56,8.72,7.49c0,0,15.1,0,19.31,9.53s-.49,15.58-10.62,24.07l-.13-5.29Z"/><path class="cls-10" d="M595.62,125.63a5.4,5.4,0,1,1-4.88-5.84A5.38,5.38,0,0,1,595.62,125.63Z"/><path class="cls-11" d="M587.26,125.56a3,3,0,0,1,3.79-2.9"/><path class="cls-18" d="M577.86,99.53s13.51,16.86,19.28,22.14c0,0,9.73-17.1,5.62-22.51C599.46,94.82,581.33,95.49,577.86,99.53Z"/><line class="cls-19" x1="583.07" y1="97.08" x2="599.64" y2="116.77"/><path class="cls-5" d="M570.1,137.57l-3.28,8.83L584.74,154l1.31-3.69,7.2-3.41L591.14,139l-8.67,5.53-.57.39s-.34.47-1.76-.49Z"/><polyline class="cls-6" points="569.43 137.12 586.13 148.46 586.02 150.77"/><line class="cls-6" x1="591.58" y1="138.98" x2="581.31" y2="145.18"/><path class="cls-6" d="M590.59,149.53s11.69,9.43,20.5,6.91"/><path class="cls-6" d="M592.29,149.61a1.4,1.4,0,0,1-2.78-.26,1.4,1.4,0,0,1,1.52-1.26A1.39,1.39,0,0,1,592.29,149.61Z"/><circle class="cls-6" cx="573.25" cy="151.02" r="1.44"/><path class="cls-6" d="M573.25,151s-7.76,14.69-13.71,19.43"/><polygon class="cls-2" points="195.01 341.71 179.11 363.27 160.67 353.79 176.67 329.75 195.01 341.71"/><line class="cls-3" x1="192.32" y1="339.95" x2="175.56" y2="361.61"/><line class="cls-3" x1="188.33" y1="337.37" x2="171.57" y2="359.03"/><line class="cls-3" x1="184.87" y1="334.52" x2="168.44" y2="357.06"/><line class="cls-3" x1="181.32" y1="332.45" x2="164.75" y2="355.16"/><polygon class="cls-8" points="187.01 408.85 137.57 375.33 161.44 344.49 188.25 365.73 180.73 379.99 187.01 408.85"/><line class="cls-20" x1="185.01" y1="389.04" x2="176.46" y2="394.03"/><line class="cls-20" x1="182" y1="382.82" x2="173.45" y2="387.81"/><path class="cls-20" d="M179.61,379.79s17.81,4.27,18.34-1.27C198.81,369.61,179.61,379.79,179.61,379.79Z"/><line class="cls-20" x1="192.22" y1="368.69" x2="179.06" y2="379.77"/><path class="cls-12" d="M170.53,374.14A8,8,0,1,1,168.84,363,8,8,0,0,1,170.53,374.14Z"/><path class="cls-18" d="M167.69,239.47s13.91,28.74,21.76,43.22c2.61,4.82,3.78,9.06-5.25,22.49-9.43,14-18.27,25.46-18.27,25.46l32.75,26s33.09-37,36.27-56.4S220.64,235,206,215,162.52,228.77,167.69,239.47Z"/><line class="cls-6" x1="193.75" y1="292.93" x2="204.62" y2="292.93"/><path class="cls-6" d="M167.69,239.47s13.91,28.74,21.76,43.22c2.61,4.82,3.78,9.06-5.25,22.49-9.43,14-18.27,25.46-18.27,25.46"/><line class="cls-6" x1="170.53" y1="324.67" x2="200.93" y2="348.28"/><polygon class="cls-2" points="92.78 287.9 74.31 268.5 86.86 251.99 107.74 271.92 92.78 287.9"/><line class="cls-3" x1="94.98" y1="285.56" x2="76.56" y2="265.29"/><line class="cls-3" x1="98.22" y1="282.08" x2="79.8" y2="261.81"/><line class="cls-3" x1="101.62" y1="279.17" x2="82.28" y2="259.07"/><line class="cls-3" x1="104.28" y1="276.03" x2="84.79" y2="255.77"/><polygon class="cls-8" points="28.05 268.36 69.66 225.5 95.88 254.35 70.3 277.07 57.56 267.19 28.05 268.36"/><line class="cls-20" x1="47.91" y1="269.83" x2="44.48" y2="260.54"/><line class="cls-20" x1="54.56" y1="267.95" x2="51.13" y2="258.66"/><path class="cls-20" d="M58,266.12s-7.3,16.8-1.94,18.28C64.64,286.79,58,266.12,58,266.12Z"/><line class="cls-20" x1="66.69" y1="280.46" x2="58.07" y2="265.58"/><path class="cls-12" d="M65.1,258.16a8,8,0,1,1,11.24.27A8,8,0,0,1,65.1,258.16Z"/><path class="cls-18" d="M144.13,215l-12.87,63.33L106.48,257.6,80.39,286.46c12.51,24.18,51.12,49.64,73.82,36.06S185,236.6,185,236.6l3.92-20.36Z"/><line class="cls-6" x1="123.46" y1="271.78" x2="131.14" y2="278.18"/><path class="cls-6" d="M185,236.6s-8.06,72.34-30.76,85.92S92.9,310.64,80.39,286.46"/><polyline class="cls-6" points="128.22 293.25 144.13 214.96 188.89 216.24"/><line class="cls-6" x1="84.73" y1="291.34" x2="110.4" y2="263.76"/><path class="cls-21" d="M240.44,102.07l5.74-12.79s-4.33-11.82-.84-13.62,5.79,5.7,5.79,5.7,4.78-18.81,8.17-17.45c4.35,1.75-1.37,14.66-1.37,14.66s5.74-14.84,9.42-12.32c2.2,1.51-2.13,9.31-2.13,9.31s6.24,2.31,5.23,9.17c-.62,4.26-13.66,25.43-13.66,25.43Z"/><path class="cls-6" d="M255.92,93.39s.84-5.4-1.83-8.38a39.24,39.24,0,0,1-5-7.84"/><path class="cls-6" d="M265.22,75.56s-3.92,1.58-3.81,3.86,2.42,3.53,6.14.16"/><path class="cls-6" d="M266.41,80.5s-2.62,1.74-1,3.83S270,83,270,83"/><path class="cls-12" d="M239.89,98.05l20.45,10.11s-11.74,65.31-56.79,78.25-2.68.08-2.68.08L184.2,146.13S215.37,140.56,239.89,98.05Z"/><line class="cls-6" x1="237.4" y1="102.67" x2="258.64" y2="114.08"/><path class="cls-6" d="M198.22,187.3s20-3.85,30.08-15.43"/><path class="cls-21" d="M118,97.71l.53-14s9.12-8.67,6.79-11.83-7.72,2.54-7.72,2.54,4.06-19,.42-19.26c-4.67-.37-5.27,13.74-5.27,13.74s1.43-15.85-3-15.22c-2.63.38-2.21,9.29-2.21,9.29s-6.62-.69-8.76,5.9c-1.33,4.09,1,28.85,1,28.85Z"/><path class="cls-6" d="M108,83.06s1.64-5.2,5.35-6.69a39.31,39.31,0,0,0,7.94-4.82"/><path class="cls-6" d="M107.59,63s2.81,3.16,1.7,5.15-3.74,2.09-5.57-2.58"/><path class="cls-6" d="M104.33,66.86s1.58,2.72-.81,3.87-3.5-3.22-3.5-3.22"/><path class="cls-12" d="M95.66,95.53h24.18s2.76,25.88,12.31,34.57,15.55,10,36.49,11l-4.88,48.44s-48.4-11.39-61.33-38C88,121.87,95.66,95.53,95.66,95.53Z"/><path class="cls-12" d="M118.6,169.52s16.84,12,28.08,13.83"/><path class="cls-12" d="M141.06,156.2l-3.4,73.19,78.5-2.43-10-72.57s-5.37-4.66-11-6.41-38.78-1-38.78-1S142.28,149.14,141.06,156.2Z"/><polyline class="cls-6" points="141.06 156.2 137.66 229.39 216.16 226.96 206.19 154.39"/><line class="cls-6" x1="137.94" y1="223.45" x2="215.38" y2="221.27"/><circle class="cls-5" cx="157.52" cy="163.49" r="4.22"/><path class="cls-12" d="M182.71,154.29s6.24,2,9.15-6.47-.07-13.32-7-16S168.73,130,162,131.2s-8.49,4.89-8.73,7.88,1.94,8.18,3.07,7.94,5.59-4.06,10.46-.32S178.92,153.56,182.71,154.29Z"/><path class="cls-6" d="M153.3,140s7.17.5,10.14,2.52,7,9.88,19.27,11.77c5.37.83,9.52-2.81,10.52-11.33"/><path class="cls-22" d="M184.22,109.36s3,4.67,7.72,5.83,8.9.17,10.31-5-5.1-9.52-9.21-9.52c0,0,1.63-6.8-5.49-7.85A6.56,6.56,0,0,0,179.79,98s-4.71-4.51-11.93-.54-7.16,12-6.05,15c0,0-5.87,0-7,5.52s1.45,9,6.42,10.63c0,0,3.48.81,4.81.06,0,0-3.06,4.8,1.91,7.56,5.68,3.15,9.77-2.67,12-4.8s-2.8-10.58-3.37-12.62C176.63,118.82,184.12,116.74,184.22,109.36Z"/><path class="cls-21" d="M171.05,118.49a5,5,0,0,1,2.87,1l0-3c.05-4.7,3.46-8.5,7.59-8.46l6.2.06c4.13,0,7.46,3.92,7.41,8.62l-.1,9.62c-.05,4.69-3.46,8.5-7.58,8.46l-3.59,0,0,5.18a3.88,3.88,0,0,1-3.91,3.82l-2.46,0a3.88,3.88,0,0,1-3.82-3.9l.06-5.86v-.33l.06-5.85,0-.35a4.91,4.91,0,1,1-2.74-8.94Z"/><path class="cls-11" d="M173.67,124.07a2.7,2.7,0,0,0-3.17-3"/><path class="cls-8" d="M182.71,119.71a1.4,1.4,0,1,0,1.41-1.38A1.4,1.4,0,0,0,182.71,119.71Z"/><path class="cls-8" d="M191.86,119.6a1.2,1.2,0,1,0,1.21-1.18A1.2,1.2,0,0,0,191.86,119.6Z"/><polygon class="cls-23" points="188.79 118.38 188.42 123.57 190.92 122.08 188.79 118.38"/><path class="cls-11" d="M186.74,127a2.15,2.15,0,1,0,4.3,0Z"/><path class="cls-22" d="M191.94,115.19c4.75,1.15,9.33.26,10.31-5,1.23-6.59-4.89-9.86-9.21-9.53,0,0,1.57-6.42-5.49-7.84-5.71-1.16-7.76,5.16-7.76,5.16s-4.31-.44-4.39-.51l-1.73,2.94-4.15,16.87,3.35,1.6a5.63,5.63,0,0,1,2.13,1.94s9.53-2.13,9.63-9.51A15.84,15.84,0,0,0,191.94,115.19Z"/><line class="cls-24" x1="181.84" y1="118.03" x2="185.03" y2="116.91"/><line class="cls-24" x1="191.86" y1="116.91" x2="194.25" y2="117.47"/><circle class="cls-25" cx="181.84" cy="125.08" r="3.02"/><path class="cls-25" d="M192.46,125a3.13,3.13,0,0,0,2.42,3,8.5,8.5,0,0,0,.17-1.69l0-4.45A3.14,3.14,0,0,0,192.46,125Z"/><path class="cls-5" d="M186.92,144.55s-1.83-3.37-4.21-4.36-11.31-1.26-13,2.31,11.75,7.78,11.75,7.78S186.7,147.73,186.92,144.55Z"/><rect class="cls-7" x="172.7" y="138.06" width="12.06" height="4.26" rx="1.93" transform="translate(357.46 280.38) rotate(180)"/><path class="cls-12" d="M189.58,142.07s-1.13,9.3-6.77,9.45-11.47-4.4-13.87-6.12c-3.22-2.32-2.5-2.62-2.5-2.62s2.72-4.14,6.15-2.45c5.43,2.66,6.25,3.11,7.13,3.61l2.31,1.33s.56.79,1.36-.42,2.71-5.26,2.92-7.27C186.31,137.58,190.78,139.5,189.58,142.07Z"/><path class="cls-12" d="M184.33,146.7a99.6,99.6,0,0,0-10-5.63c-7-3.57-11.29-5.21-8.55-8.63"/><path class="cls-12" d="M186.45,136.58s-.51,5.51-3.64,9"/><path class="cls-10" d="M334.08,201.27s10.33-18.24,12.33-21.41,4.32-5.08,5.41-3.75-.2,5.39-.2,5.39,4.24-6.3,6.28-8.53,5.13-2.66,3.52,1.29c0,0,2-3,3.45-2.51s0,3-1.46,4.44c0,0,2.77-3.68,4.06-2.94s-.09,3-1.75,5c0,0,1.94-2.8,3.4-2s-.46,3.42-2.67,6.82-5.93,8.46-7.91,11.95c-1.51,2.63-5.79,10.75-5.79,10.75L348.88,215Z"/><path class="cls-11" d="M351.4,175.73s.88.18.79,2.46-1.15,5.54-.73,7.51-.64,5-.64,5"/><line class="cls-11" x1="355.99" y1="181.5" x2="362.43" y2="173.06"/><path class="cls-11" d="M358,182.7l6.65-8.14"/><line class="cls-11" x1="360.55" y1="184.26" x2="366.95" y2="176.78"/><path class="cls-5" d="M337,196l-25.23,19.34-28.32-24.11s-14.25,41.06-5.2,52.89,21.43,25.48,43.71,15.55,31.71-46.61,31.71-46.61Z"/><path class="cls-26" d="M335.9,224.07h0a2.83,2.83,0,0,1-.39,4l-7.36,6a2.84,2.84,0,0,1-4-.39h0a2.83,2.83,0,0,1,.4-4l7.35-6A2.83,2.83,0,0,1,335.9,224.07Z"/><path class="cls-26" d="M314.16,234.77h0a2.83,2.83,0,0,1-.4,4l-7.35,6a2.83,2.83,0,0,1-4-.39h0a2.83,2.83,0,0,1,.39-4l7.36-6A2.83,2.83,0,0,1,314.16,234.77Z"/><path class="cls-26" d="M311.05,214.73v6.72a2.82,2.82,0,0,0,2.82,2.82h0a2.83,2.83,0,0,0,2.83-2.82v-9.52a2.4,2.4,0,0,0,0-.28l-4.86,3.73Z"/><path class="cls-26" d="M336.32,200.06a2.82,2.82,0,0,0-.85-2.81l-5.33,4.08-1.71,6.51a2.83,2.83,0,0,0,5.47,1.43Z"/><path class="cls-26" d="M300.81,206l-4.46,4.46a2.83,2.83,0,0,0,4,4l4.78-4.78Z"/><path class="cls-26" d="M329.81,243.84a2.83,2.83,0,0,0-2.82,2.83v9.52a2.75,2.75,0,0,0,.08.65,40.34,40.34,0,0,0,5.57-4.58v-5.59A2.83,2.83,0,0,0,329.81,243.84Z"/><path class="cls-26" d="M348.21,222.34a2.82,2.82,0,1,0-5.28,2l3.21,8.48c1.26-2.54,2.35-5,3.28-7.29Z"/><path class="cls-26" d="M315.77,255.23a2.82,2.82,0,0,0-3.76,1.35l-3.07,6.51a32,32,0,0,0,6.78-1.12l1.4-3A2.82,2.82,0,0,0,315.77,255.23Z"/><path class="cls-7" d="M342.32,215.3a3.66,3.66,0,1,1,3.66-3.66A3.66,3.66,0,0,1,342.32,215.3Zm0-6.74a3.09,3.09,0,1,0,3.09,3.08A3.08,3.08,0,0,0,342.32,208.56Z"/><path class="cls-7" d="M323.15,222.88a3.66,3.66,0,1,1,3.66-3.66A3.66,3.66,0,0,1,323.15,222.88Zm0-6.74a3.09,3.09,0,1,0,3.09,3.08A3.08,3.08,0,0,0,323.15,216.14Z"/><path class="cls-7" d="M337.73,240.46a3.66,3.66,0,1,1,3.66-3.66A3.66,3.66,0,0,1,337.73,240.46Zm0-6.74a3.09,3.09,0,1,0,3.09,3.08A3.08,3.08,0,0,0,337.73,233.72Z"/><path class="cls-7" d="M320.07,250.75a3.66,3.66,0,1,1,3.66-3.66A3.66,3.66,0,0,1,320.07,250.75Zm0-6.75a3.09,3.09,0,1,0,3.08,3.09A3.09,3.09,0,0,0,320.07,244Z"/><path class="cls-7" d="M306,230.49a3.66,3.66,0,1,1,3.66-3.66A3.66,3.66,0,0,1,306,230.49Zm0-6.74a3.09,3.09,0,1,0,3.08,3.08A3.08,3.08,0,0,0,306,223.75Z"/><path class="cls-6" d="M306,219.8,337,196l16.67,17.06s-9.43,36.68-31.71,46.61-34.67-3.72-43.71-15.55,5.2-52.89,5.2-52.89l28.32,24.11"/><path class="cls-27" d="M332.38,199.62l18.91,21c1.64-4.54,2.42-7.57,2.42-7.57L337,196Z"/><path class="cls-10" d="M230.23,361.12s68.44,6.29,87.4.43c25.34-7.83,7.39-48-4.78-57.34s-36,8-36,8l13.27,20.42-59.37,3.34Z"/><path class="cls-6" d="M281.48,364c14.87.25,29-.23,36.15-2.44"/><path class="cls-13" d="M286,332.81l-55.21,3.11-.53,25.2s30.54,2.81,56.47,2.92Z"/><polygon class="cls-13" points="196.85 391.12 194.63 328.39 237.47 330.09 235.13 364.07 218.38 365.09 196.85 391.12"/><line class="cls-28" x1="212.61" y1="379.62" x2="205.75" y2="376.52"/><line class="cls-28" x1="216.26" y1="372.96" x2="209.59" y2="369.95"/><path class="cls-28" d="M217.76,367.92s7.54,18.68,12.83,15.62C239.12,378.62,217.76,367.92,217.76,367.92Z"/><line class="cls-28" x1="235.74" y1="372.14" x2="217.43" y2="367.42"/><line class="cls-6" x1="199.66" y1="330.49" x2="200.93" y2="383.68"/><path class="cls-26" d="M212,345.69s12.68-10.5,14.71-6.91-4.56,8-4.56,8,6.78,3.38,5.26,7.56S212,345.69,212,345.69Z"/><path class="cls-10" d="M284.17,289.66s24.12,34.62,24.12,53.2-66.39,74.62-66.39,74.62l-20-17.32s51.37-51.64,51.12-59.73C272.75,329.92,254,301.5,254,301.5Z"/><path class="cls-5" d="M289.25,372.5,265.35,353C251.06,370.9,222,400.16,222,400.16l20,17.32S269.63,394.07,289.25,372.5Z"/><path class="cls-26" d="M261.39,357.79c-1.79,2.13-2.42,2.84-4.42,5.11l23.13,19.26c2.56-2.56,2.54-2.6,5-5.2Z"/><path class="cls-29" d="M289.25,372.5,265.35,353C251.06,370.9,222,400.16,222,400.16l20,17.32S269.63,394.07,289.25,372.5Z"/><path class="cls-29" d="M254,301.5s18.8,28.42,19.12,38.93c.25,8.09-51.12,59.73-51.12,59.73l20,17.32s66.39-56,66.39-74.62-24.12-53.2-24.12-53.2"/><polygon class="cls-13" points="245.6 456.36 201.96 411.26 234.91 383.83 255.93 410.64 244.17 422.61 245.6 456.36"/><line class="cls-28" x1="249.61" y1="437.27" x2="242.44" y2="439.56"/><line class="cls-28" x1="247.86" y1="429.88" x2="240.9" y2="432.11"/><path class="cls-28" d="M245.6,425.13s18.11,8.83,20,3C268.63,418.78,245.6,425.13,245.6,425.13Z"/><line class="cls-28" x1="261.78" y1="416.22" x2="245.02" y2="424.98"/><line class="cls-6" x1="207.1" y1="409.45" x2="243.65" y2="448.11"/><path class="cls-26" d="M226.43,412.49s2.39-16.29,6.3-15,2,9,2,9,7.3-2,9,2.09S226.43,412.49,226.43,412.49Z"/><path class="cls-30" d="M298.1,260.69l26.5,46.4-76.29,18.68s-9.89-33-9.59-40.62,6.74-25.44,6.74-25.44Z"/><path class="cls-5" d="M252.78,324.67H248c.14.5.25.85.29,1h.41Z"/><path class="cls-5" d="M312.81,298.15V310l1-.24V298.15h5.69l-.58-1h-5.11v-9l-1-1.75v10.72H300V284.38h11.59l-.57-1H300V270.62h3.73l-.57-1H300v-5.54l-1-1.75v7.29H286.28v-9.15l-1,0v9.17H272.52v-9.41h-1v9.42H258.75V260l-1,0v9.68H245v-8.57c-.26.74-.6,1.75-1,2.95v5.62h-1.8l-.3,1H244v12.76h-5.11c0,.35-.08.68-.11,1H244v12.77h-3.36c.08.33.15.66.23,1H244V310.5c.34,1.26.67,2.49,1,3.67v-2.26h12.76v11.54l1-.24v-11.3h12.77v8.17l1-.24v-7.93h12.76v4.8l1-.24v-4.56H299v1.43l1-.24v-1.19h4.87l4.08-1H300V298.15Zm-55.06,12.76H245V298.15h12.76Zm0-13.76H245V284.38h12.76Zm0-13.77H245V270.62h12.76Zm13.77,27.53H258.75V298.15h12.77Zm0-13.76H258.75V284.38h12.77Zm0-13.77H258.75V270.62h12.77Zm13.76,27.53H272.52V298.15h12.76Zm0-13.76H272.52V284.38h12.76Zm0-13.77H272.52V270.62h12.76ZM299,310.91H286.28V298.15H299Zm0-13.76H286.28V284.38H299Zm0-13.77H286.28V270.62H299Z"/><path class="cls-6" d="M253.71,273.28s-5.67,9.86-8.25,13.28"/><polygon class="cls-10" points="299.57 254.31 299.57 263.26 252.25 264.89 256.19 249.57 299.57 254.31"/><path class="cls-5" d="M284.22,191.91c28.43,17.54,23.7,66.87,23.7,66.87l-69.23-.53-2.61-27.76,29.67-33.15,9.62-6.77Z"/><path class="cls-26" d="M294.06,248.35h0a2.82,2.82,0,0,1-4,0l-6.73-6.73a2.82,2.82,0,0,1,0-4h0a2.82,2.82,0,0,1,4,0l6.73,6.73A2.82,2.82,0,0,1,294.06,248.35Z"/><path class="cls-26" d="M256.19,243.89h0a2.82,2.82,0,0,1-1.64-3.64l3.37-8.9a2.83,2.83,0,0,1,3.64-1.65h0a2.84,2.84,0,0,1,1.64,3.65l-3.37,8.9A2.81,2.81,0,0,1,256.19,243.89Z"/><path class="cls-26" d="M289.71,196l-2.84,2.12a2.82,2.82,0,1,0,3.37,4.53l3.42-2.55A41.25,41.25,0,0,0,289.71,196Z"/><path class="cls-26" d="M303.37,218.12h-6.2a2.83,2.83,0,0,0,0,5.65H305C304.55,221.89,304,220,303.37,218.12Z"/><path class="cls-26" d="M308,244.16l-1.71.23a2.83,2.83,0,1,0,.75,5.6l1.14-.15C308.2,248.12,308.15,246.21,308,244.16Z"/><path class="cls-26" d="M287.57,258.63a2.82,2.82,0,0,0-5.13-2.26l-1.28,2.21Z"/><path class="cls-7" d="M291.64,213.67a3.66,3.66,0,1,1,3.65-3.65A3.66,3.66,0,0,1,291.64,213.67Zm0-6.74a3.09,3.09,0,1,0,3.08,3.09A3.1,3.1,0,0,0,291.64,206.93Z"/><path class="cls-7" d="M291.64,234.15a3.66,3.66,0,1,1,3.65-3.66A3.66,3.66,0,0,1,291.64,234.15Zm0-6.74a3.09,3.09,0,1,0,3.08,3.08A3.09,3.09,0,0,0,291.64,227.41Z"/><path class="cls-7" d="M278.76,252.85a3.66,3.66,0,1,1,3.66-3.66A3.66,3.66,0,0,1,278.76,252.85Zm0-6.74a3.09,3.09,0,1,0,3.09,3.08A3.08,3.08,0,0,0,278.76,246.11Z"/><path class="cls-7" d="M307.62,238.78a3,3,0,0,1-1.16.23,3.09,3.09,0,1,1,0-6.17,3,3,0,0,1,.42,0l-.09-.59-.33,0a3.66,3.66,0,1,0,0,7.31,3.52,3.52,0,0,0,1.22-.22Z"/><path class="cls-7" d="M299.27,252.79a3.64,3.64,0,0,0-2.87,5.91h.78a3.05,3.05,0,0,1-1-2.25,3.09,3.09,0,1,1,6.17,0,3,3,0,0,1-1,2.28h.77a3.57,3.57,0,0,0,.83-2.29A3.66,3.66,0,0,0,299.27,252.79Z"/><path class="cls-6" d="M284.22,191.91c28.43,17.54,23.7,66.87,23.7,66.87l-69.23-.53-2.61-27.76,29.67-33.15,9.62-6.77Z"/><path class="cls-10" d="M280.24,229.39s3.91-4.45,2.5-6-7.19,4.38-8.61,5.38-7.1,5.47-8.92,6.88a37,37,0,0,1-4.52,2.93l7.22,14.5s11.45-5.86,18.11-9.77c6.36-3.73,12.33-8.61,11.47-10.11-.53-.92-2.7.57-2.7.57s3.09-2.54,2.66-3.82c-.33-1-3.37.8-3.37.8s3.25-2.52,2.61-3.83-4.89,1.65-4.89,1.65,3.15-2.87,2.18-3.87-6.68,2.66-10.71,5.19S279.24,230.77,280.24,229.39Z"/><path class="cls-6" d="M295.46,233.24a22.93,22.93,0,0,1-5.79,3.68"/><path class="cls-6" d="M295.17,229.63a49.55,49.55,0,0,1-6.16,4.1"/><path class="cls-6" d="M293,227.51l-6,3.76"/><path class="cls-5" d="M248.52,236.53l7.67-9.7s9.33-3.47,10-3.44,11.69-32.12,11.69-32.12-23.86,0-49.05,28c-21.33,23.67-16.18,48.06-.22,53.05s35.61-10.16,43.55-18.63l-9.45-19.94Z"/><path class="cls-26" d="M260,260h0a2.82,2.82,0,0,1-3.56,1.81l-9-3a2.82,2.82,0,0,1-1.82-3.56h0a2.84,2.84,0,0,1,3.57-1.81l9,3A2.83,2.83,0,0,1,260,260Z"/><path class="cls-26" d="M247.51,219.24h0a2.81,2.81,0,0,1,1.36-3.76l8.62-4a2.83,2.83,0,0,1,3.76,1.36h0a2.84,2.84,0,0,1-1.36,3.76l-8.63,4A2.82,2.82,0,0,1,247.51,219.24Z"/><path class="cls-26" d="M233.35,251.86h0a2.83,2.83,0,0,1-3.66-1.6l-3.48-8.86a2.82,2.82,0,0,1,1.59-3.66h0a2.83,2.83,0,0,1,3.67,1.59l3.48,8.86A2.83,2.83,0,0,1,233.35,251.86Z"/><path class="cls-26" d="M244.79,237.56l1.1-1.91a2.82,2.82,0,0,0-4.89-2.83l-3.66,6.34Z"/><path class="cls-26" d="M263.22,201.85a2.83,2.83,0,0,0,4.61-3.27l-3.19-4.49c-1.68.59-3.49,1.3-5.4,2.16Z"/><path class="cls-26" d="M235,223.56l-1.33-9.39c-1.6,1.58-3.22,3.26-4.85,5.07l-.12.14.7,5a2.83,2.83,0,0,0,5.6-.79Z"/><path class="cls-26" d="M250.46,241.3a2.82,2.82,0,1,0,5,2.58l4.36-8.46a2.83,2.83,0,0,0,.3-1.19l-6.73,1.33Z"/><path class="cls-26" d="M238.33,265.52a2.82,2.82,0,0,0-4,.42l-5.25,6.49a22.93,22.93,0,0,0,6.59.84l3.05-3.78A2.82,2.82,0,0,0,238.33,265.52Z"/><path class="cls-26" d="M219.53,254.49l-4.85-3a27.62,27.62,0,0,0,1.14,7.39l.7.44a2.83,2.83,0,0,0,3-4.79Z"/><path class="cls-26" d="M270.86,208h0a2.82,2.82,0,0,1,4-.32l7.26,6.16a2.84,2.84,0,0,1,.32,4h0a2.83,2.83,0,0,1-4,.32L271.18,212A2.82,2.82,0,0,1,270.86,208Z"/><path class="cls-7" d="M241.81,227.79a3.66,3.66,0,1,1,3.65-3.66A3.66,3.66,0,0,1,241.81,227.79Zm0-6.74a3.09,3.09,0,1,0,3.08,3.08A3.08,3.08,0,0,0,241.81,221.05Z"/><path class="cls-7" d="M227.91,264.35a3.66,3.66,0,1,1,3.66-3.66A3.66,3.66,0,0,1,227.91,264.35Zm0-6.74a3.08,3.08,0,1,0,3.08,3.08A3.08,3.08,0,0,0,227.91,257.61Z"/><path class="cls-7" d="M243,251.59a3.66,3.66,0,1,1,3.65-3.66A3.66,3.66,0,0,1,243,251.59Zm0-6.74a3.09,3.09,0,1,0,3.08,3.08A3.09,3.09,0,0,0,243,244.85Z"/><path class="cls-7" d="M263.05,253.23a3.66,3.66,0,1,1,3.66-3.66A3.66,3.66,0,0,1,263.05,253.23Zm0-6.74a3.09,3.09,0,1,0,3.09,3.08A3.08,3.08,0,0,0,263.05,246.49Z"/><path class="cls-7" d="M250.72,206.22a3.66,3.66,0,0,0,2.06-6.68l-.58.34a3.05,3.05,0,0,1,1.6,2.68,3.08,3.08,0,0,1-6.15.15l-.54.36A3.65,3.65,0,0,0,250.72,206.22Z"/><path class="cls-7" d="M219.67,239.52a3.08,3.08,0,0,1-3.08,3.08,3,3,0,0,1-.85-.13l-.15.55a3.64,3.64,0,0,0,2.26-6.92c-.07.17-.16.35-.23.53A3.07,3.07,0,0,1,219.67,239.52Z"/><path class="cls-7" d="M250.75,266.32a3.62,3.62,0,0,0-3.54,4.54l.53-.21a3,3,0,0,1-.08-.67,3.09,3.09,0,0,1,3.09-3.08,3,3,0,0,1,2.44,1.22l.52-.27A3.66,3.66,0,0,0,250.75,266.32Z"/><path class="cls-7" d="M266.55,226.54a3.66,3.66,0,1,1,3.66-3.66A3.66,3.66,0,0,1,266.55,226.54Zm0-6.74a3.08,3.08,0,1,0,3.09,3.08A3.08,3.08,0,0,0,266.55,219.8Z"/><path class="cls-7" d="M278.29,199.48a3.66,3.66,0,1,1,3.65-3.66A3.66,3.66,0,0,1,278.29,199.48Zm0-6.74a3.09,3.09,0,1,0,3.08,3.08A3.09,3.09,0,0,0,278.29,192.74Z"/><path class="cls-6" d="M277.87,191.27s-23.86,0-49.05,28c-21.33,23.67-16.18,48.06-.22,53.05s35.61-10.16,43.55-18.63l-9.45-19.94-27.15,5.82"/><line class="cls-6" x1="248.31" y1="236.8" x2="256.19" y2="226.83"/><path class="cls-27" d="M262.7,233.72l-5.52,1.18,10.42,23.21c1.41-1.28,3.51-3.34,4.55-4.45Z"/><path class="cls-10" d="M269.91,165.26a5.56,5.56,0,0,1,3.24,1V163c0-5.29,3.8-9.62,8.45-9.62h7c4.65,0,8.45,4.33,8.45,9.62V173.8c0,5.29-3.8,9.62-8.45,9.62h-4v5.83a4.36,4.36,0,0,1-4.35,4.35h-2.78a4.36,4.36,0,0,1-4.35-4.35V175.69a2.56,2.56,0,0,1,0-.39,5.53,5.53,0,1,1-3.19-10Z"/><path class="cls-11" d="M272.92,171.51s.25-3.75-3.6-3.33"/><path class="cls-8" d="M283.05,166.5a1.58,1.58,0,1,0,1.58-1.58A1.58,1.58,0,0,0,283.05,166.5Z"/><path class="cls-8" d="M293.37,166.27a1.35,1.35,0,0,0,2.69,0,1.35,1.35,0,1,0-2.69,0Z"/><path class="cls-15" d="M277.58,172.29a3.92,3.92,0,1,0,3.91-3.91A3.91,3.91,0,0,0,277.58,172.29Z"/><path class="cls-15" d="M296.35,169.43a2.61,2.61,0,0,1,.69.09v4.06a7.9,7.9,0,0,1-.15,1.76,3.19,3.19,0,0,1-.54,0,3,3,0,0,1,0-6Z"/><polygon class="cls-15" points="289.89 164.93 289.54 170.78 292.33 169.08 289.89 164.93"/><line class="cls-6" x1="282.06" y1="164.32" x2="284.77" y2="163.24"/><line class="cls-6" x1="293.61" y1="163.4" x2="296.2" y2="163.78"/><path class="cls-22" d="M272.92,145.25a2.8,2.8,0,1,1-2.79-2.79A2.79,2.79,0,0,1,272.92,145.25Z"/><path class="cls-31" d="M254.07,144.48a16.34,16.34,0,0,1,4.53,1.84c2.36,1.4,8.13-.32,9.14-7.21s-6.37-11.44-11.64-11.17S249.84,130,247,134s-4.81,2.27-7.57-1.14c-4-4.95-13.2-4.4-17.93,3.16s-3.61,17.36,6.33,22.49,19.93.65,20.64-6.46S253,144.2,254.07,144.48Z"/><path class="cls-22" d="M269.91,150c5.67-5.72,13.9-6.18,21.55-1.58s7.49,12.12,7,13.19a1.89,1.89,0,0,1-1.45,1.28,13.94,13.94,0,0,1-4-.49c-6.11-1.3-10-6.59-10-6.59s.52,1-1.56,5.37c-1.56,3.32-5.52,5.37-7.54,6.22-.73-.58-.92-.74-1.27-1a4.84,4.84,0,0,0-2.71-1.11,6,6,0,0,0-3.57,1.24C264.85,163.49,264.69,155.22,269.91,150Z"/><path class="cls-11" d="M292.53,174.68a2.43,2.43,0,1,1-4.85,0"/><rect class="cls-26" x="270.29" y="186.04" width="17.33" height="8.44" rx="2.55" transform="translate(-2.11 3.14) rotate(-0.64)"/><line class="cls-6" x1="272.15" y1="194.45" x2="285.48" y2="194.45"/><path class="cls-22" d="M423.47,204.7s-6.9,19.9-4.72,29.13a44.24,44.24,0,0,0,15.52,24.76c8.76,7.28,2.8,21.85,8.45,32.77s40.12,9.23,53.23-12.13,10.44-44.57-2.91-50.57-20.61-9.2-25-19.35-23.35-15.54-33.76-12.14S423.47,204.7,423.47,204.7Z"/><polygon class="cls-26" points="468.38 369.48 494.29 340.73 472.88 321.59 445.18 352.58 468.38 369.48"/><polygon class="cls-5" points="537.96 337.39 493.15 293.43 465.5 326.2 492.17 347.4 504.22 335.72 537.96 337.39"/><polygon class="cls-32" points="489.87 297.32 465.5 326.2 492.17 347.4 504.22 335.72 531.38 337.06 489.87 297.32"/><path class="cls-5" d="M479.16,312.14a14.45,14.45,0,0,0,21.91-4.1l-11.2-10.72-11.72,13.89A12.79,12.79,0,0,0,479.16,312.14Z"/><polygon class="cls-6" points="537.96 337.39 493.15 293.43 465.5 326.2 492.17 347.4 504.22 335.72 537.96 337.39"/><line class="cls-6" x1="489.94" y1="297.24" x2="531.48" y2="337.07"/><line class="cls-28" x1="518.83" y1="341.26" x2="521.18" y2="334.11"/><line class="cls-28" x1="511.46" y1="339.46" x2="513.73" y2="332.52"/><path class="cls-28" d="M506.73,337.17s8.7,18.17,2.87,20C500.22,360.16,506.73,337.17,506.73,337.17Z"/><line class="cls-28" x1="497.71" y1="353.29" x2="506.58" y2="336.59"/><path class="cls-7" d="M415.41,292.34s-30.74,42.34-40.54,67,4.8,43,16.62,47.08S440.94,411,483.08,358l-39.75-29.91-1.89-37.76Z"/><path class="cls-6" d="M391.49,406.44c11.82,4.1,49.45,4.59,91.59-48.4l-39.75-29.91"/><polygon class="cls-26" points="477.93 402.52 516.61 404.04 517.62 375.35 476.08 373.88 477.93 402.52"/><polygon class="cls-5" points="547.11 435.46 552.23 372.9 509.35 372.62 510.13 406.68 526.81 408.46 547.11 435.46"/><polygon class="cls-32" points="547.14 372.87 509.35 372.62 510.13 406.68 526.81 408.46 543.16 430.2 547.14 372.87"/><path class="cls-5" d="M528.89,374.12a14.47,14.47,0,0,0,14.47,14.47,14.23,14.23,0,0,0,2.71-.26l1.07-15.46L529,372.75C528.92,373.2,528.89,373.66,528.89,374.12Z"/><polygon class="cls-6" points="547.11 435.46 552.23 372.9 509.35 372.62 510.13 406.68 526.81 408.46 547.11 435.46"/><line class="cls-6" x1="547.24" y1="372.87" x2="543.21" y2="430.28"/><line class="cls-28" x1="531.9" y1="423.24" x2="538.9" y2="420.47"/><line class="cls-28" x1="528.56" y1="416.42" x2="535.36" y2="413.73"/><path class="cls-28" d="M527.3,411.33s-8.4,18.3-13.55,15C505.47,421,527.3,411.33,527.3,411.33Z"/><line class="cls-28" x1="509.14" y1="414.7" x2="527.65" y2="410.84"/><path class="cls-7" d="M448.85,364.06c7-9,18.65-24.84,22.17-35.14,9.23-26.95-11.29-58.76-11.29-58.76L429,271.81l-9.58,48.42c1.19-.43,7.53,0,7.53,0s-27.3,42.49-28.17,60.34c-1.07,22.2,12.69,27.21,33.35,32.87,19.33,5.29,61.05,8.11,61.05,8.11l.34-55.6Z"/><path class="cls-6" d="M419.44,320.23c1.19-.43,7.53,0,7.53,0s-27.3,42.49-28.17,60.34c-1.07,22.2,12.69,27.21,33.35,32.87,19.33,5.29,61.05,8.11,61.05,8.11l.34-55.6-44.36-1.88"/><path class="cls-6" d="M443.35,370.92s22.51-26.94,27.67-42c9.23-26.95-11.29-58.76-11.29-58.76L429,271.81"/><path class="cls-6" d="M452.41,296.67S454.14,317,466,323.06"/><path class="cls-21" d="M408.45,189.7a5.69,5.69,0,0,0-3.46-3.48c-3.8-1.63-6.19-1.41-9,0s-17.45,29.87-17.45,29.87l15.38,6.08,6.86-15.12s3.27-2.07,5-3.45,4.71-5.69,4.78-8.36c0-1.4-1.47-1.57-1.94-2.65C408.29,191.77,409.07,189.87,408.45,189.7Z"/><path class="cls-6" d="M395.11,188.27s-2.71,4.84,0,6.07c2.45,1.1,4.73-4,4.83-7"/><path class="cls-6" d="M397.74,193.32s-.25,2,2.2,2.35,3.43-4.82,2.88-7.4"/><path class="cls-6" d="M405.65,188.94s1.35,4.58-1.2,6.75c-1.9,1.61-2.86-.79-2.86-.79"/><path class="cls-6" d="M403.8,196.11a2.47,2.47,0,0,0,2.21,1.24c1.7.11,3.38-4.07,2.3-7.71"/><path class="cls-21" d="M398.38,198.48c1.33-1.79,5.49-2.23,5.49-2.23s3.2-.69,3.38-1.76c.32-1.9,0-4.81,2-4.26,3.5,1,1.72,7.93,1.72,7.93s-.61,2.85-4.77,5.47c-2.18,1.37-3.83,2.19-6.84,1.9S398.38,198.48,398.38,198.48Z"/><path class="cls-6" d="M398.38,198.48c1.33-1.79,5.49-2.23,5.49-2.23s3.2-.69,3.38-1.76c.32-1.9.09-4.18,2-4.11,3.62.13,1.73,7.78,1.73,7.78"/><path class="cls-6" d="M395.11,204.63a39.74,39.74,0,0,0,6,1.09"/><path class="cls-12" d="M414.28,232.45c-2.28.66-16.47,8.53-20.3,10.66L398.8,217,378,213.69c-17.33,20.46-38.42,65.54-9.44,71.92a50.48,50.48,0,0,0,43.54-10.92L427,229.06S416.92,231.69,414.28,232.45Z"/><path class="cls-33" d="M411.63,260.26a37.14,37.14,0,0,1-7.48,1.9,12.45,12.45,0,0,0-6.2,3.06,14.55,14.55,0,0,0-3.35,5.25,23.4,23.4,0,0,0-1.43,6.39,26.31,26.31,0,0,0,.32,7.72c0,.05,0,.1,0,.16l1-.31a25.28,25.28,0,0,1-.36-7.21,23.56,23.56,0,0,1,1.37-6.32,13.37,13.37,0,0,1,3.28-5.09,12.36,12.36,0,0,1,6.39-2.84,31.49,31.49,0,0,0,7-1.85,22.55,22.55,0,0,0,5.43-3.46l.09-.09.65-2c-.3.29-.57.6-.88.88A22.48,22.48,0,0,1,411.63,260.26Z"/><path class="cls-33" d="M380.32,232.87a5.84,5.84,0,0,0,5.82.48,13.26,13.26,0,0,0,4.76-4.11c2.56-3.31,3.88-7.51,2.63-11.61-.17-.54-.37-1.07-.57-1.59l-1.14-.18a14.08,14.08,0,0,1,1.2,4.44,11.36,11.36,0,0,1-1.29,5.77,16.31,16.31,0,0,1-3.73,4.84c-1.5,1.33-3.52,2.49-5.59,1.87-1.91-.58-3.61-2.2-5-3.57a26.14,26.14,0,0,1-3.63-4.49,26.76,26.76,0,0,1-1.77-3.24l-.65,1c.25.52.52,1,.81,1.55A25.28,25.28,0,0,0,380.32,232.87Z"/><path class="cls-33" d="M385.55,238.9c-3.47,5.39-4.87,12.47-2.59,18.59,1.12,3,3.11,5.58,4.34,8.53a10.18,10.18,0,0,1,.88,4.58,9.93,9.93,0,0,1-1.61,4.57c-1.9,3-4.89,5-7.7,7.09A40.7,40.7,0,0,0,374,286.5l1.25.13a36.94,36.94,0,0,1,3.82-3.24c2.68-2,5.53-3.88,7.6-6.57a10.84,10.84,0,0,0,2.45-8.3c-.47-3-2.29-5.69-3.75-8.34a18.7,18.7,0,0,1-2.47-9.2,21.46,21.46,0,0,1,2.25-9.26A29.3,29.3,0,0,1,396.4,230l.24-1.3A32.42,32.42,0,0,0,385.55,238.9Z"/><path class="cls-33" d="M398.22,240.83a9.9,9.9,0,0,0,.14,4.86,7.84,7.84,0,0,0,3,4.31,7.42,7.42,0,0,0,5.15,1.15c3.94-.5,6.87-3.35,8.57-6.79,2-4,2.46-8.45,3.72-12.68.05-.17.1-.33.16-.49l-1.14.3c-.81,2.78-1.3,5.66-2.11,8.44-1.07,3.63-2.84,7.46-6.35,9.29-3.23,1.68-7.35,1.27-9.28-2.08a8.7,8.7,0,0,1-.62-7Z"/><path class="cls-33" d="M357.93,258.09a18.44,18.44,0,0,1,5.27-1.26,29.19,29.19,0,0,0,5.19-.8,8.55,8.55,0,0,0,6-6.57,22.63,22.63,0,0,0-.24-10,11.53,11.53,0,0,0-2.32-4.92,16.07,16.07,0,0,0-4.22-3.38c-.43-.25-.87-.48-1.3-.72l-.49.86a21.65,21.65,0,0,1,3.95,2.58,10.19,10.19,0,0,1,3.12,4.72,22.55,22.55,0,0,1,.87,5.49,18.22,18.22,0,0,1-.3,4.89,8.63,8.63,0,0,1-2,4.1,8.28,8.28,0,0,1-4.56,2.24c-1.76.34-3.55.41-5.32.67a17.19,17.19,0,0,0-5.09,1.62c-.49.25-1,.53-1.45.82-.08.45-.17.9-.24,1.34A18.9,18.9,0,0,1,357.93,258.09Z"/><path class="cls-33" d="M375.6,279.3a14.62,14.62,0,0,0,1.6-6.14A13.83,13.83,0,0,0,376,267a4.38,4.38,0,0,0-2.13-2.42,4.66,4.66,0,0,0-3.25,0c-1.19.39-2.24,1.09-3.41,1.51a7.33,7.33,0,0,1-4,.05,11.47,11.47,0,0,0-3.83-.3,9.13,9.13,0,0,0-3.46,1.42,15.2,15.2,0,0,0-1.7,1.29c0,.43.06.86.11,1.28a12.08,12.08,0,0,1,1.25-1.11,9.93,9.93,0,0,1,3.13-1.7,7.48,7.48,0,0,1,3.7,0,12.65,12.65,0,0,0,3.57.37,9.41,9.41,0,0,0,3.21-1.1,7,7,0,0,1,3.34-1,2.93,2.93,0,0,1,2.5,2,12.56,12.56,0,0,1,1.16,6,13.46,13.46,0,0,1-1.71,5.93,14.14,14.14,0,0,1-4.65,4.74c-.69.46-1.43.92-2.17,1.39.28.08.56.15.85.21l.5.1c.74-.46,1.45-.91,2.1-1.38A14.37,14.37,0,0,0,375.6,279.3Z"/><path class="cls-6" d="M394.16,243.1s17.48-9.89,20.12-10.65S427,229.06,427,229.06l-14.92,45.63a50.48,50.48,0,0,1-43.54,10.92c-29-6.38-7.89-51.46,9.44-71.92L398.8,217,391,259.06"/><path class="cls-6" d="M374.8,217.63,398,221.52l.84-4.57L378,213.69C376.91,214.92,375.86,216.24,374.8,217.63Z"/><path class="cls-21" d="M483.08,169.45s12.6-29,14.25-32.93,2.1-8.16-.12-16.07-1.72-8.94-1-9.53,2.44-1.28,4.23,2l.36.57s.64-2.54,2.43-2.81,2.47,1.89,2.78,4,.63,7.22.63,7.22,3.87-3.3,5.05,3c.57,3-3,1.23-3,1.23s.62.09,1.34-.82,3.52-4.77,4.65-5.59,2.4-1.93,4.06-.49-1.84,9.14-6.21,16.92-11.15,33.48-11.15,33.48Z"/><path class="cls-6" d="M499,111s2.09,1.75,4.82,8.79,2.9,7,4.32,7.13,5.54-7.76,8.37-8.3"/><path class="cls-6" d="M505.2,111.58s1.73,3.68,1.47,14.71"/><line class="cls-34" x1="490.63" y1="145.94" x2="509.84" y2="151.52"/><line class="cls-34" x1="488.73" y1="150.84" x2="507.94" y2="156.41"/><path class="cls-12" d="M472.78,265.39c37.3-32.47,30.07-96.38,30.07-96.38l-16.91-10.15s-34.31,70.21-45.67,70.21H428.48l-4.32,2.87L420,243.68S417,257,424.72,262.62,472.78,265.39,472.78,265.39Z"/><path class="cls-12" d="M503.27,175.05c-.17-3.82-.42-6-.42-6l-16.91-10.15s-.91,1.85-2.47,4.94Z"/><path class="cls-33" d="M491.69,231.09a11.18,11.18,0,0,0-13.4,4.45c-3.52,5.24-3.05,12.32-1.25,18.09a39.48,39.48,0,0,0,2.16,5.4l.71-.82c-.33-.69-.64-1.39-.92-2.1-2.33-5.76-3.57-12.92-.63-18.7a11.11,11.11,0,0,1,6.62-5.77,11,11,0,0,1,7.51.85c.69.3,1.35.65,2,1,.13-.31.25-.62.37-.93A23.52,23.52,0,0,0,491.69,231.09Z"/><path class="cls-33" d="M477.22,218.41c1.13-2.3,1.2-4.93,1.2-7.44a24.79,24.79,0,0,0-1.17-8.82,17.39,17.39,0,0,0-9.22-9.36l-.5.88a16.79,16.79,0,0,1,8,7.09,17.62,17.62,0,0,1,1.87,7.89,25.48,25.48,0,0,1-.51,7.89c-.8,2.77-2.89,4.26-5.27,5.64a37,37,0,0,0-5.82,4c-3.59,3.08-6,6.86-8.51,10.83s-5.57,7.95-10.63,8.09-9.57-3.2-12.2-7.38a33,33,0,0,1-3.68-8.67h-1a37.74,37.74,0,0,0,3,7.77c2.34,4.37,6.15,8,11.15,9s9.06-1.27,12-5.1c3.14-4.05,5.21-8.69,8.9-12.34a33.24,33.24,0,0,1,6.76-5.1C473.78,222.07,476.05,220.78,477.22,218.41Z"/><path class="cls-33" d="M483.92,180.52c5.1-2.11,9-6.47,11.65-11.17.67-1.18,1.26-2.39,1.81-3.63l-.88-.52c-4,8.79-11.47,17-21.85,15.55l-.49.92A18.29,18.29,0,0,0,483.92,180.52Z"/><path class="cls-33" d="M499.78,216.09c.08-.34.16-.69.23-1l-.91-.64a29.5,29.5,0,0,1-6.48-5.24,18.67,18.67,0,0,1-3.6-6.91,18,18,0,0,1,2.33-15.12,19,19,0,0,1,12-7.83c0-.34,0-.67,0-1-9,1.64-16.24,9.66-16.07,19.1A19.94,19.94,0,0,0,493,211.07,51.12,51.12,0,0,0,499.78,216.09Z"/><path class="cls-6" d="M428.48,229.07h11.79c11.36,0,45.67-70.21,45.67-70.21L502.85,169s7.23,63.91-30.07,96.38"/><line class="cls-6" x1="483.81" y1="163.62" x2="503.27" y2="175.05"/><polygon class="cls-12" points="471.33 248.04 480.14 302.4 397.39 302.4 405.16 248.04 406.84 236.72 422.41 236.94 431.82 232.36 460.6 237.48 468.63 237.59 471.33 248.04"/><path class="cls-33" d="M443.79,255.78c-3.21-2.42-7.44-4.46-11.55-4.22s-7.76,3.31-11.38,5.22A61.43,61.43,0,0,1,407.5,262c-1.48.39-3,.69-4.48,1.09l-.16,1.1c.36-.11.72-.22,1.09-.31A84.79,84.79,0,0,0,416.48,260a65.41,65.41,0,0,0,6.07-3c1.86-1,3.63-2.27,5.54-3.23,4.42-2.21,9-.95,13.1,1.46a17.79,17.79,0,0,1,8.05,9.47,25.75,25.75,0,0,1,1.08,12.16,14.7,14.7,0,0,1-5.79,9.94c-3,2.11-6.59,3.3-9.15,6s-3.18,6.23-4.18,9.61h1.05c1-3.44,1.7-7,4.5-9.54s6.92-3.75,9.85-6.42a16.18,16.18,0,0,0,4.74-9.67,27.18,27.18,0,0,0-.87-11.48A18.23,18.23,0,0,0,443.79,255.78Z"/><path class="cls-33" d="M459.07,291.76c-1-6.66.64-13.33,5.89-17.83a15,15,0,0,1,9.57-3.95h.36l-.16-1a16.75,16.75,0,0,0-3.53.39,17.68,17.68,0,0,0-8.15,5c-4.79,4.83-6,11.62-4.87,18.14a47.71,47.71,0,0,0,3,9.91h1.08l-.31-.75A46.05,46.05,0,0,1,459.07,291.76Z"/><path class="cls-33" d="M407.15,292.72c1-2,1.78-4,2.63-5.94.72-1.69,1.57-3.58,3.12-4.67,2.24-1.57,5.05-.3,7.2.83s4.9,2.58,4.93,5.32c0,3.52-2.19,6.67-4.23,9.34-1.22,1.58-2.52,3.14-3.65,4.8h1.22c.36-.5.72-1,1.08-1.46,1.95-2.54,4.12-5,5.44-7.93a12.06,12.06,0,0,0,1.12-4.33,5,5,0,0,0-2.16-4.53c-2.64-2-7.12-4.88-10.58-3.38-3.16,1.37-4.22,5.29-5.46,8.16a74.47,74.47,0,0,1-6.5,11.89c-.36.53-.73,1.05-1.1,1.58h1.19A79.08,79.08,0,0,0,407.15,292.72Z"/><path class="cls-33" d="M410,254.89a27.3,27.3,0,0,1-8.09,2c-.36,0-.73,0-1.09,0l-.13.89a21.46,21.46,0,0,0,6.3-.8c8.86-2.53,21.69-8.26,21.26-19.33-.12-2.88-1.47-5.29-3.05-7.62l-1.06.19a31.69,31.69,0,0,1,1.83,2.94c2.5,4.71.94,10.18-2.54,14S414.82,253.08,410,254.89Z"/><path class="cls-33" d="M464.6,227.28a49.88,49.88,0,0,0-7.33,9.75c-2.45,3.94-5.57,7.95-10.63,8.09s-9.57-3.2-12.2-7.38a33,33,0,0,1-3.68-8.67h-1a37.74,37.74,0,0,0,3,7.77c2.34,4.37,6.15,8,11.15,9s9.06-1.27,12-5.1c3.14-4.05,5.21-8.69,8.9-12.34l.6-.55Z"/><polyline class="cls-6" points="471.33 248.04 480.14 302.4 397.39 302.4 405.16 248.04"/><path class="cls-22" d="M447.44,186.68a12.14,12.14,0,0,0-8.79-.78c-27.94-5.81-25.63,14.47-23.35,21.92a17.83,17.83,0,0,0,1.16,2.64v.6s2,11.55,13.35,13.8,19.23-4,20.66-11.6c.18-.92.33-1.76.46-2.53C457.88,199.13,452,188.9,447.44,186.68Z"/><path class="cls-22" d="M420.51,235.13c1.64-2.27,1.67-6.62,1.05-11.24-.05-4.66-2.28-11.75-4.18-17h0c-1.43-3.92-2.67-6.8-2.67-6.8s-13.48,7.28-11.78,15.85c.77,3.86,2.18,6.29,2,8.63-.2,3.09-2.59,5.4-5.63,7-5.19,2.75-10.17,5.86-8.48,15.84s-9.4,5.44-12.05,18.05S393,284.19,393,284.19h0a19.78,19.78,0,0,0,3.64,1.33c10.4,2.8,22.72-6,19.22-16.42-.64-1.89-1.13-3.57-1.5-5.08-.61-7.08,6.38-7.37,7.53-13C423.18,244.84,416,241.37,420.51,235.13Z"/><ellipse class="cls-35" cx="433.47" cy="229.06" rx="8.53" ry="4.84"/><rect class="cls-21" x="427.29" y="216.95" width="12.6" height="14.54" rx="4.81"/><path class="cls-21" d="M414.49,210.76a3.86,3.86,0,1,0,4-3.71A3.84,3.84,0,0,0,414.49,210.76Z"/><path class="cls-11" d="M420.48,210.94a2.12,2.12,0,0,0-2.07-2.18"/><path class="cls-21" d="M452.41,210.76a3.86,3.86,0,1,1-4-3.71A3.84,3.84,0,0,1,452.41,210.76Z"/><path class="cls-11" d="M446.42,210.94a2.12,2.12,0,0,1,2.07-2.18"/><rect class="cls-21" x="417.33" y="194.2" width="32.29" height="24.38" rx="10.49" transform="matrix(0.01, -1, 1, 0.01, 222.71, 637.76)"/><path class="cls-11" d="M439.06,221.78a10.33,10.33,0,0,1-4.05.78l-3.4,0a10.44,10.44,0,0,1-2.59-.35"/><path class="cls-11" d="M437,213.37a3.13,3.13,0,0,1-6.21-.06Z"/><path class="cls-8" d="M427,206.08a1.42,1.42,0,1,1-1.36-1.47A1.42,1.42,0,0,1,427,206.08Z"/><path class="cls-8" d="M441.93,206.08a1.41,1.41,0,1,1-1.35-1.47A1.4,1.4,0,0,1,441.93,206.08Z"/><path class="cls-6" d="M439.11,203a4.8,4.8,0,0,1,3.51.65"/><path class="cls-36" d="M427,203a4.8,4.8,0,0,0-3.51.65"/><polygon class="cls-23" points="434.72 209.47 432.15 209.47 433.38 203.9 434.72 209.47"/><path class="cls-25" d="M428,211.26a3.07,3.07,0,1,1-3.06-3.07A3.06,3.06,0,0,1,428,211.26Z"/><path class="cls-25" d="M445,211.26a3.07,3.07,0,1,1-3.07-3.07A3.06,3.06,0,0,1,445,211.26Z"/><path class="cls-22" d="M417.89,204.63s17.37.09,20.49-10.06c0,0,2.47,6.91,8.31,10.06,0,0,1.76-6.17-.55-10.63s-4.93-5.87-11.79-5.72S415.42,192.2,417.89,204.63Z"/></svg>