<svg id="Layer_1" data-name="Layer 1" xmlns="http://www.w3.org/2000/svg" viewBox="0 0 1080 1080"><defs><style>.cls-1{fill:none;}.cls-2{fill:#faa51a;}.cls-3{fill:#262d2f;}.cls-4{fill:#ee4127;}</style></defs><path class="cls-1" d="M482.74,355.28c-69.35,86.08-55.86,212,30.1,281.49L764.32,324.85C678.15,255.54,552.11,269.14,482.74,355.28Z"/><path class="cls-2" d="M898.2,149.23c-181-141.64-442.77-112-587.41,67.53C167.08,395.16,192.63,655,366.5,802.23A112.44,112.44,0,1,0,504.69,629.82c-78.59-70.66-89.05-191.26-21.95-274.54,69.37-86.14,195.41-99.74,281.58-30.43L899.14,157.63A6,6,0,0,0,898.2,149.23Z"/><path class="cls-3" d="M721.7,298.52l-38.53,56.14,26.22,21.07L774.7,301,898.42,149.53h0a11.24,11.24,0,0,1,2.27,15.8L789.24,312.7l-58.87,79.88,26.22,21.07L927.53,187.46a9,9,0,0,1,14,11.22L769.21,441.75v0l-32.91,41c-10.26,12.77-24.06,22.56-39.91,26.73a74.32,74.32,0,0,1-52.11-5.13L413.88,807.09a26.32,26.32,0,0,1-36.88,5l-8.26-7.76L618.81,483.91a74.64,74.64,0,0,1,.14-93.13l86.76-98.71S708.78,292.83,721.7,298.52Z"/><circle class="cls-3" cx="785.27" cy="205.71" r="9.72"/><rect class="cls-3" x="733.24" y="230.3" width="19.26" height="58.45" rx="1.5" transform="translate(327.17 -408.61) rotate(38.85)"/><path class="cls-4" d="M649.34,173q16.86.61,33.59,2.86l-2-.27a384.54,384.54,0,0,1,48.14,9.7c3.79,1,8.33-1.27,9.23-5.24a7.64,7.64,0,0,0-5.24-9.23,387.58,387.58,0,0,0-65.46-11.67q-9.12-.83-18.27-1.15a7.56,7.56,0,0,0-7.5,7.5,7.66,7.66,0,0,0,7.5,7.5Z"/><path class="cls-4" d="M540.75,190.07a262.29,262.29,0,0,1,45.84-12.8c4.49-.83,9-1.54,13.52-2.16l-2,.27q6.54-.87,13.13-1.45a8.06,8.06,0,0,0,5.3-2.2,7.63,7.63,0,0,0,2.2-5.3c-.17-3.77-3.32-7.87-7.5-7.5a283.4,283.4,0,0,0-58.87,11.29q-7.89,2.43-15.61,5.38a8.15,8.15,0,0,0-4.49,3.45,7.63,7.63,0,0,0-.75,5.78c1.15,3.56,5.3,6.73,9.22,5.24Z"/><path class="cls-4" d="M462.24,233.13a291,291,0,0,1,48.35-30.22c3.52-1.75,4.78-7,2.69-10.26A7.67,7.67,0,0,0,503,190a291,291,0,0,0-48.35,30.21,8.27,8.27,0,0,0-3.45,4.49,7.65,7.65,0,0,0,.76,5.77,7.52,7.52,0,0,0,4.48,3.45c1.82.42,4.23.44,5.78-.75Z"/><path class="cls-4" d="M389.79,310.48q3.66-5.66,7.57-11.16,2-2.83,4.11-5.63c.62-.84,1.26-1.68,1.89-2.51l.55-.72c.5-.65-.52.68-.49.63.41-.54.83-1.06,1.25-1.6q8.4-10.69,17.73-20.61,5.25-5.58,10.74-10.89a7.5,7.5,0,1,0-10.6-10.6,319.26,319.26,0,0,0-36.82,42.53q-4.62,6.38-8.88,13a7.56,7.56,0,0,0,2.69,10.26,7.66,7.66,0,0,0,10.26-2.69Z"/><path class="cls-4" d="M353.16,389.07a276.73,276.73,0,0,1,11.12-31.65l-.76,1.79q4.17-9.88,9.06-19.43c1.79-3.49,1-8.3-2.69-10.27-3.42-1.81-8.35-1-10.26,2.69a290.7,290.7,0,0,0-20.93,52.88c-1.08,3.77,1.31,8.33,5.23,9.23a7.65,7.65,0,0,0,9.23-5.24Z"/><path class="cls-4" d="M339,484.66A335.79,335.79,0,0,1,342,439.73l-.27,2Q343,431.54,345,421.43a8,8,0,0,0-.76-5.78,7.62,7.62,0,0,0-4.48-3.44c-3.72-.85-8.42,1.12-9.23,5.23A348.72,348.72,0,0,0,324.29,470q-.3,7.33-.29,14.69c0,3.92,3.45,7.68,7.5,7.5a7.63,7.63,0,0,0,7.5-7.5Z"/><path class="cls-4" d="M357,592.63a346.57,346.57,0,0,1-12.88-50.26c-.87-4.85-1.62-9.72-2.28-14.6l.27,2q-.66-5-1.19-9.94a8.11,8.11,0,0,0-2.2-5.3,7.63,7.63,0,0,0-5.3-2.2c-3.71.17-7.94,3.33-7.5,7.5a359.59,359.59,0,0,0,11.53,60.41q2.34,8.25,5.09,16.38c1.25,3.71,5.22,6.54,9.22,5.24,3.69-1.19,6.58-5.25,5.24-9.23Z"/><path class="cls-4" d="M400.2,678.68a359.79,359.79,0,0,1-27.07-46.58q-3.31-6.84-6.35-13.82c-.69-1.61-2.87-3-4.48-3.45a7.68,7.68,0,0,0-5.78.75,7.56,7.56,0,0,0-3.44,4.49,8.73,8.73,0,0,0,.75,5.78,362.14,362.14,0,0,0,25.07,47.68q4,6.45,8.34,12.72a8,8,0,0,0,4.49,3.45,7.68,7.68,0,0,0,5.78-.76c3.21-2.07,5.06-6.8,2.69-10.26Z"/><path class="cls-3" d="M110.67,915.19a6.94,6.94,0,0,0-4.92-1.87H50.39v13.31H66.78v76.68a6.8,6.8,0,0,0,2,5.06,7.16,7.16,0,0,0,5.33,2,7.47,7.47,0,0,0,5.34-2,6.62,6.62,0,0,0,2.15-5.06V926.63h24.13a7.11,7.11,0,0,0,4.92-1.8,6.78,6.78,0,0,0,0-9.64Z"/><path class="cls-3" d="M179.66,936.34a6.63,6.63,0,0,1,5,2,7,7,0,0,1,1.94,5.06v59.9a7,7,0,0,1-1.94,5.06,7.09,7.09,0,0,1-9.91,0,6.83,6.83,0,0,1-2-5.06v-10l2.91.42a10.32,10.32,0,0,1-2,5.54,26.64,26.64,0,0,1-5.48,5.89,30.56,30.56,0,0,1-8.18,4.72,27.13,27.13,0,0,1-10.12,1.87,31,31,0,0,1-17.2-4.92,34.57,34.57,0,0,1-12.06-13.52,45.72,45.72,0,0,1,0-39.31,34.23,34.23,0,0,1,12-13.38,31.82,31.82,0,0,1,27.87-2.91,31.63,31.63,0,0,1,8.81,5,24.7,24.7,0,0,1,5.75,6.44,12.76,12.76,0,0,1,2,6.45l-4.29.42V943.41a6.92,6.92,0,0,1,2-5A6.57,6.57,0,0,1,179.66,936.34ZM151.37,999a20.32,20.32,0,0,0,11.51-3.32,22.29,22.29,0,0,0,7.77-9.09,31.24,31.24,0,0,0,0-25.72,22.38,22.38,0,0,0-7.77-9,20.25,20.25,0,0,0-11.51-3.33,19.69,19.69,0,0,0-11.3,3.33,23.17,23.17,0,0,0-7.77,9,30.54,30.54,0,0,0,0,25.72,23.07,23.07,0,0,0,7.77,9.09A19.76,19.76,0,0,0,151.37,999Z"/><path class="cls-3" d="M208.64,999a7.39,7.39,0,0,1-1.11-4.5,5.56,5.56,0,0,1,2.91-4.37,6.27,6.27,0,0,1,4.09-1,6.75,6.75,0,0,1,4.09,2.15,30.8,30.8,0,0,0,8.67,6.79,24.7,24.7,0,0,0,11.58,2.5,27.57,27.57,0,0,0,5.68-.9,11.07,11.07,0,0,0,5-2.77,7.83,7.83,0,0,0,2.08-5.9,7.25,7.25,0,0,0-2.21-5.54,16.81,16.81,0,0,0-5.83-3.4q-3.6-1.32-7.76-2.43-4.44-1.25-8.95-2.77a34.33,34.33,0,0,1-8.11-4,19.27,19.27,0,0,1-5.89-6.31,18.53,18.53,0,0,1-2.29-9.57,17.7,17.7,0,0,1,3.67-11.23,24.49,24.49,0,0,1,9.57-7.35,31,31,0,0,1,12.83-2.64,37.3,37.3,0,0,1,8.46,1,35.69,35.69,0,0,1,8.6,3.26,24.59,24.59,0,0,1,7.21,5.82,8.05,8.05,0,0,1,1.59,4.3,5,5,0,0,1-2.29,4.44,5.52,5.52,0,0,1-4,1.25,6.05,6.05,0,0,1-3.88-1.53,17.92,17.92,0,0,0-6.8-5.2,22.84,22.84,0,0,0-9.43-1.87,21.43,21.43,0,0,0-5.47.76,10.54,10.54,0,0,0-4.79,2.71,7.71,7.71,0,0,0-1.94,5.68,7.12,7.12,0,0,0,2.29,5.55,18.47,18.47,0,0,0,6,3.47,79.57,79.57,0,0,0,8.18,2.49q4.31,1.11,8.53,2.64a31.45,31.45,0,0,1,7.63,3.95,19.08,19.08,0,0,1,5.54,6.24,19.37,19.37,0,0,1,2.15,9.64,17.56,17.56,0,0,1-3.95,11.58,25.32,25.32,0,0,1-10,7.28,32.92,32.92,0,0,1-12.69,2.49,46,46,0,0,1-15.74-2.84A28.79,28.79,0,0,1,208.64,999Z"/><path class="cls-3" d="M322.41,940.15a6.29,6.29,0,0,0-4.64-1.87h-11.1v-11a7,7,0,0,0-1.94-5.06,7.11,7.11,0,0,0-9.91,0,6.87,6.87,0,0,0-2,5.06v11h-7.63a6.41,6.41,0,0,0-4.64,1.8,6.42,6.42,0,0,0,0,9.08,6.28,6.28,0,0,0,4.64,1.88h7.63v41.05H306.7c0-.15,0-.27,0-.42V951h11.1a6.4,6.4,0,0,0,4.64-1.81,5.91,5.91,0,0,0,1.88-4.43A6.32,6.32,0,0,0,322.41,940.15Z"/><path class="cls-3" d="M379.89,1011.77q-11.5,0-20-4.78a33.51,33.51,0,0,1-13.1-13.17,39,39,0,0,1-4.65-19.21q0-12.2,4.93-20.87a35.18,35.18,0,0,1,12.82-13.31,32.56,32.56,0,0,1,16.78-4.65,31.55,31.55,0,0,1,12.9,2.71A35.74,35.74,0,0,1,408,957.21,36.91,36.91,0,0,1,411,971.28a6.21,6.21,0,0,1-2.22,4.58,7.16,7.16,0,0,1-4.85,1.8H349.94l-3.33-11.79h52.14l-2.64,2.5V964.9a14.7,14.7,0,0,0-3.18-8.52,19.86,19.86,0,0,0-7.21-5.69,21.09,21.09,0,0,0-9-2,24.19,24.19,0,0,0-8,1.32,18.05,18.05,0,0,0-6.8,4.23,20,20,0,0,0-4.71,7.69,35,35,0,0,0-1.73,11.86,26.73,26.73,0,0,0,3.19,13.31,22.72,22.72,0,0,0,8.59,8.8A23.45,23.45,0,0,0,379.2,999a28.68,28.68,0,0,0,8.46-1,20.38,20.38,0,0,0,5.54-2.56q2.22-1.53,3.89-2.91a8,8,0,0,1,4.15-1.25A5.52,5.52,0,0,1,405.4,993a5.72,5.72,0,0,1,1.67,4.09q0,3.06-3.05,5.55a33.5,33.5,0,0,1-10.33,6.38A35.18,35.18,0,0,1,379.89,1011.77Z"/><path class="cls-3" d="M546.4,1004.88l9.07-9.06c-1.59-1.38-3.34-2.89-5.3-4.57-1.09-.93-2.25-1.94-3.39-2.94.77-1.37,1.49-2.76,2.14-4.2a60.94,60.94,0,0,0,4.72-15.74,7.64,7.64,0,0,0-1.32-5.68,5.59,5.59,0,0,0-4.78-2.36,6.49,6.49,0,0,0-4.16,1,4.49,4.49,0,0,0-1.53,3,53.2,53.2,0,0,1-3.47,12.41c-.41,1-.85,2-1.33,2.92-2.86-2.6-5.72-5.26-8.58-8q-5.61-5.48-10.33-10.61-3.2-3.46-7-7.56a58.56,58.56,0,0,1-6.66-8.53,16.05,16.05,0,0,1-2.84-8.73,12,12,0,0,1,3.67-8.88q3.68-3.6,10.61-3.6a23.74,23.74,0,0,1,10.19,1.94,19,19,0,0,1,7.14,6.1,6.43,6.43,0,0,0,1.67,1.39,5.45,5.45,0,0,0,2.91.69,6,6,0,0,0,4.44-1.66,5.17,5.17,0,0,0,1.66-3.75,9.13,9.13,0,0,0-.48-3.12,7.85,7.85,0,0,0-.63-1.45q-2.64-5.13-9.91-8.53a39.91,39.91,0,0,0-17-3.4,31.91,31.91,0,0,0-15.32,3.47,26.13,26.13,0,0,0-10,9.08,22.67,22.67,0,0,0-3.53,12.27,20.52,20.52,0,0,0,2.42,9.71,50.36,50.36,0,0,0,3.29,5.27,38.46,38.46,0,0,0-10.91,6.66,28.37,28.37,0,0,0-7.35,10.19A31.54,31.54,0,0,0,472.1,981a27.67,27.67,0,0,0,4.44,15,33.37,33.37,0,0,0,12.2,11.44,35.23,35.23,0,0,0,17.61,4.37,47,47,0,0,0,19.14-3.67A42.29,42.29,0,0,0,539,998.7Q542.6,1001.72,546.4,1004.88Zm-24.17-9.26a27.22,27.22,0,0,1-13,3q-8.17,0-13.24-2.91a18.5,18.5,0,0,1-7.42-7.42,19.93,19.93,0,0,1-2.35-9.36,18.28,18.28,0,0,1,3.67-11.37c2.06-2.72,5.62-4.81,10.64-6.29,1.32,1.54,2.69,3.12,4.13,4.76q6.93,7.77,14.07,14.63c3.37,3.24,6.92,6.5,10.61,9.76A31.29,31.29,0,0,1,522.23,995.62Z"/><path class="cls-3" d="M699.44,915.19a6.94,6.94,0,0,0-4.92-1.87H641v13.31h14.56v76.68a6.83,6.83,0,0,0,2,5.06,7.18,7.18,0,0,0,5.34,2,7.47,7.47,0,0,0,5.34-2,6.62,6.62,0,0,0,2.15-5.06V926.63h24.13a7.11,7.11,0,0,0,4.92-1.8,6.78,6.78,0,0,0,0-9.64Z"/><path class="cls-3" d="M721.14,1010.39a6.6,6.6,0,0,1-5-2,6.94,6.94,0,0,1-1.94-5.06V944.52a7,7,0,0,1,1.94-5.06,6.63,6.63,0,0,1,5-2,6.73,6.73,0,0,1,4.93,2,6.91,6.91,0,0,1,2,5.06v15.53l-1.39-6a24.33,24.33,0,0,1,3.4-7.21,26.33,26.33,0,0,1,5.47-5.83,25.17,25.17,0,0,1,7.14-3.88,24.91,24.91,0,0,1,8.26-1.39,10.21,10.21,0,0,1,6.24,2,5.83,5.83,0,0,1,2.63,4.85c0,2.49-.65,4.32-1.94,5.47a6.31,6.31,0,0,1-4.3,1.74,9.43,9.43,0,0,1-4-.9A10.81,10.81,0,0,0,745,948a13.23,13.23,0,0,0-6,1.53,17.56,17.56,0,0,0-5.55,4.51,23.07,23.07,0,0,0-4,7,26.36,26.36,0,0,0-1.45,9v33.28a6.87,6.87,0,0,1-2,5.06A6.7,6.7,0,0,1,721.14,1010.39Z"/><path class="cls-3" d="M837.21,936.34a6.65,6.65,0,0,1,5,2,7,7,0,0,1,1.94,5.06v59.9a7,7,0,0,1-1.94,5.06,6.62,6.62,0,0,1-5,2,6.68,6.68,0,0,1-4.93-2,6.83,6.83,0,0,1-2-5.06v-10l2.91.42a10.32,10.32,0,0,1-2,5.54,26.58,26.58,0,0,1-5.47,5.89,30.62,30.62,0,0,1-8.19,4.72,27.09,27.09,0,0,1-10.12,1.87,31,31,0,0,1-17.19-4.92,34.59,34.59,0,0,1-12.07-13.52,45.82,45.82,0,0,1,0-39.31,34.33,34.33,0,0,1,12-13.38A31.82,31.82,0,0,1,818,937.73a31.78,31.78,0,0,1,8.81,5,24.7,24.7,0,0,1,5.75,6.44,12.76,12.76,0,0,1,2,6.45l-4.3.42V943.41a6.92,6.92,0,0,1,2-5A6.59,6.59,0,0,1,837.21,936.34ZM808.92,999a20.34,20.34,0,0,0,11.51-3.32,22.34,22.34,0,0,0,7.76-9.09,31.13,31.13,0,0,0,0-25.72,22.44,22.44,0,0,0-7.76-9,20.27,20.27,0,0,0-11.51-3.33,19.67,19.67,0,0,0-11.3,3.33,23,23,0,0,0-7.77,9,30.54,30.54,0,0,0,0,25.72,22.91,22.91,0,0,0,7.77,9.09A19.73,19.73,0,0,0,808.92,999Z"/><path class="cls-3" d="M870.49,936.75a7.65,7.65,0,0,1,4,1.11,6.3,6.3,0,0,1,2.7,3.33l21.77,50.34-2.63,1.25,22.05-51.45q1.93-4.58,6.24-4.44a6.57,6.57,0,0,1,4.64,1.74,6.13,6.13,0,0,1,1.59,6.24,10.76,10.76,0,0,1-.69,1.73L903.76,1006a6.67,6.67,0,0,1-6,4.44,6.3,6.3,0,0,1-4.09-.91,7.78,7.78,0,0,1-3.12-3.53l-26.2-59.35a8.81,8.81,0,0,1-.56-1.46,7.14,7.14,0,0,1-.28-2.15,6.29,6.29,0,0,1,1.88-4.16A6.47,6.47,0,0,1,870.49,936.75Z"/><path class="cls-3" d="M985.44,1011.77q-11.51,0-20-4.78a33.51,33.51,0,0,1-13.1-13.17,39,39,0,0,1-4.65-19.21q0-12.2,4.93-20.87a35.18,35.18,0,0,1,12.82-13.31,32.56,32.56,0,0,1,16.78-4.65,31.55,31.55,0,0,1,12.9,2.71,35.74,35.74,0,0,1,18.44,18.72,36.91,36.91,0,0,1,2.91,14.07,6.21,6.21,0,0,1-2.22,4.58,7.16,7.16,0,0,1-4.85,1.8H955.49l-3.33-11.79h52.14l-2.64,2.5V964.9a14.7,14.7,0,0,0-3.18-8.52,19.81,19.81,0,0,0-7.22-5.69,21,21,0,0,0-9-2,24.19,24.19,0,0,0-8,1.32,18,18,0,0,0-6.8,4.23,20,20,0,0,0-4.71,7.69A35,35,0,0,0,961,973.78a26.83,26.83,0,0,0,3.19,13.31,22.81,22.81,0,0,0,8.6,8.8A23.45,23.45,0,0,0,984.75,999a28.68,28.68,0,0,0,8.46-1,20.52,20.52,0,0,0,5.54-2.56q2.22-1.53,3.89-2.91a8,8,0,0,1,4.15-1.25A5.54,5.54,0,0,1,1011,993a5.72,5.72,0,0,1,1.67,4.09q0,3.06-3,5.55a33.5,33.5,0,0,1-10.33,6.38A35.21,35.21,0,0,1,985.44,1011.77Z"/><path class="cls-3" d="M1054.08,1003.31a6.83,6.83,0,0,1-2,5.06,7,7,0,0,1-9.85,0,6.83,6.83,0,0,1-2-5.06V914.84a6.73,6.73,0,0,1,2.08-5.06,6.93,6.93,0,0,1,5-2,6.44,6.44,0,0,1,4.93,2,7.17,7.17,0,0,1,1.87,5.06Z"/><circle class="cls-2" cx="299.88" cy="1004.62" r="7"/><circle class="cls-2" cx="37.64" cy="919.37" r="7.05"/><circle class="cls-2" cx="630.01" cy="919.92" r="6.6"/><circle class="cls-2" cx="569.84" cy="1007.4" r="6.88"/></svg>