<svg id="Layer_1" data-name="Layer 1" xmlns="http://www.w3.org/2000/svg" xmlns:xlink="http://www.w3.org/1999/xlink" viewBox="0 0 851.46 804.68"><defs><style>.cls-1,.cls-3,.cls-4{fill:none;}.cls-2{clip-path:url(#clip-path);}.cls-3{stroke:#262d2f;stroke-width:16px;}.cls-3,.cls-4{stroke-linecap:round;stroke-linejoin:round;}.cls-4{stroke:#faa51a;stroke-width:34px;}</style><clipPath id="clip-path"><rect class="cls-1" x="-18.96" y="52.81" width="914.66" height="668.93"/></clipPath></defs><g class="cls-2"><g id="Grupo_de_máscara_3" data-name="Grupo de máscara 3"><g id="refeição"><path id="Caminho_27" data-name="Caminho 27" class="cls-3" d="M179.07,319.52a159.32,159.32,0,0,1-2-225.3c.65-.66,1.31-1.32,2-2L450.33,363.5l90.41,90.42L680,593.17a59,59,0,0,1,2,83.49c-.66.7-1.34,1.37-2,2h0a60.87,60.87,0,0,1-86.09-.06,61.77,61.77,0,0,1-4.33-4.82L489.38,549.18A93.34,93.34,0,0,0,381.86,522.3h0Z"/><line id="Linha_4" data-name="Linha 4" class="cls-4" x1="540.74" y1="285.31" x2="672.7" y2="153.35"/><path id="Caminho_28" data-name="Caminho 28" class="cls-3" d="M487,400.16c9.77-2.44,17.1-2.44,26.88-4.89,31.77-2.44,68.42-19.55,105.12-56.2L738.7,219.33"/><path id="Caminho_29" data-name="Caminho 29" class="cls-3" d="M319.8,462.25,148.73,601.55a52,52,0,0,0-4.89,80.64,53.53,53.53,0,0,0,75.7.7,52.38,52.38,0,0,0,4.94-5.59L363.73,503.79"/><path id="Caminho_30" data-name="Caminho 30" class="cls-3" d="M607.72,85.36,485.54,205.1c-36.66,36.65-56.21,73.31-56.21,105.11a104.08,104.08,0,0,1-4.88,26.88"/></g></g></g></svg>