<svg id="Layer_1" data-name="Layer 1" xmlns="http://www.w3.org/2000/svg" viewBox="0 0 851.46 804.68"><defs><style>.cls-1{fill:#faa51a;}</style></defs><g id="menu"><path id="Caminho_37" data-name="Caminho 37" class="cls-1" d="M278.52,180.71l-2.51-2.5c-6.3-6.3-8.8-8.81-8.8-13.85,0-6.3,2.5-7.54,8.8-13.84l8.81-8.8a10.72,10.72,0,0,0-16.35-13.84l-7.54,7.54a37.75,37.75,0,0,0,0,60.4l2.51,2.5A26.44,26.44,0,0,1,276,221a37.12,37.12,0,0,1-13.84,27.68l-2.51,2.51a10.29,10.29,0,0,0,.59,14.53c.22.2.45.39.68.57a17.88,17.88,0,0,0,7.54,2.51,13.65,13.65,0,0,0,8.81-3.77l2.5-2.51a57.63,57.63,0,0,0,20.14-42.79,51.25,51.25,0,0,0-21.47-39Z"/><path id="Caminho_38" data-name="Caminho 38" class="cls-1" d="M432,131.65l-2.51-2.51c-6.35-6.23-8.73-8.8-8.73-13.84,0-6.3,2.5-7.54,8.8-13.84l8.81-8.81A10.72,10.72,0,0,0,422,78.81l-7.54,7.54a37.76,37.76,0,0,0,0,60.4l2.51,2.51a26.41,26.41,0,0,1,12.57,22.65,37.13,37.13,0,0,1-13.84,27.68l-2.5,2.5a10.3,10.3,0,0,0,.58,14.54c.22.2.45.39.68.57a17.77,17.77,0,0,0,7.54,2.5,13.53,13.53,0,0,0,8.81-3.77l2.5-2.5a57.61,57.61,0,0,0,20.14-42.79,51.27,51.27,0,0,0-21.47-39Z"/><path id="Caminho_39" data-name="Caminho 39" class="cls-1" d="M586.79,180.71l-2.51-2.5c-6.3-6.3-8.8-8.81-8.8-13.85,0-6.3,2.5-7.54,8.8-13.84l8.81-8.8a10.72,10.72,0,0,0-15.92-14.35c-.15.16-.29.33-.43.51l-7.54,7.54a37.75,37.75,0,0,0,0,60.4l2.5,2.5A26.43,26.43,0,0,1,584.28,221a37.12,37.12,0,0,1-13.84,27.68l-2.51,2.51a10.29,10.29,0,0,0,.59,14.53c.22.2.45.39.68.57a17.88,17.88,0,0,0,7.54,2.51,13.65,13.65,0,0,0,8.81-3.77l2.5-2.51a57.63,57.63,0,0,0,20.14-42.79,60.13,60.13,0,0,0-21.48-39Z"/><path id="Caminho_40" data-name="Caminho 40" class="cls-1" d="M785.59,638.72H65.87A11.3,11.3,0,0,0,54.53,650v26.52a53.17,53.17,0,0,0,52.86,52.93H744.07a53.18,53.18,0,0,0,52.86-52.86V650.06a11.3,11.3,0,0,0-11.24-11.34Zm-11.33,37.76a31.14,31.14,0,0,1-30.83,31.45h-636A31.14,31.14,0,0,1,76,677V661.37H774.26Z"/><path id="Caminho_41" data-name="Caminho 41" class="cls-1" d="M625.78,402.19a290.61,290.61,0,0,0-159.89-78l21.48-21.48a23.12,23.12,0,0,0,5-25.17,22,22,0,0,0-21.48-13.85H380.25a23.27,23.27,0,0,0-21.48,13.85,23.55,23.55,0,0,0,5,25.17l21.47,21.48a294.25,294.25,0,0,0-160.89,78,284.47,284.47,0,0,0-88.08,196.3,11.11,11.11,0,0,0,10.07,11.31h0a11.1,11.1,0,0,0,11.34-10.07A261.27,261.27,0,0,1,239.5,418.54,265.13,265.13,0,0,1,409.36,344.3h30.19A267.41,267.41,0,0,1,691.21,599.64a10.76,10.76,0,0,0,21.48-1.27A275.61,275.61,0,0,0,625.78,402.19ZM437,321.65H414.35l-33.94-34H471.1Z"/></g></svg>