<svg id="Layer_1" data-name="Layer 1" xmlns="http://www.w3.org/2000/svg" viewBox="0 0 851.46 804.68"><defs><style>.cls-1{fill:#262d2f;}.cls-2{fill:#fff;}.cls-3{fill:#faa51a;}</style></defs><g id="Grupo_10" data-name="Grupo 10"><g id="User"><path id="Caminho_15" data-name="Caminho 15" class="cls-1" d="M503.69,751.19H262.43A120.59,120.59,0,0,1,141.84,630.6V606.39c0-119.88,97.18-217,217.05-217h48.24c119.87,0,217.06,97.16,217.07,217v24.14A120.59,120.59,0,0,1,503.71,751.19ZM358.89,437.57A168.82,168.82,0,0,0,190.07,606.39h0v24.12a72.36,72.36,0,0,0,72.36,72.35H503.69A72.35,72.35,0,0,0,576,630.51V606.39A168.82,168.82,0,0,0,407.22,437.57H358.89Z"/><path id="Caminho_16" data-name="Caminho 16" class="cls-1" d="M383,365.22a144.71,144.71,0,1,1,144.7-144.7h0A144.7,144.7,0,0,1,383,365.22Zm0-241.17a96.47,96.47,0,1,0,96.47,96.47A96.47,96.47,0,0,0,383,124.05Z"/></g><g id="União_1" data-name="União 1"><path class="cls-2" d="M682.75,290.31a9.35,9.35,0,0,1-9.33-9.33V225h-56a9.33,9.33,0,0,1,0-18.65h56v-56a9.33,9.33,0,0,1,18.65,0v56h56A9.33,9.33,0,1,1,748,225h-56v56A9.34,9.34,0,0,1,682.75,290.31Z"/><path class="cls-3" d="M682.75,281h0V241.3l0,39.68h0m0,18.65A18.64,18.64,0,0,1,664.1,281V234.35H617.46a18.65,18.65,0,0,1,0-37.3H664.1V150.41a18.65,18.65,0,1,1,37.3,0v46.64H748a18.65,18.65,0,0,1,0,37.3H701.4V281A18.64,18.64,0,0,1,682.75,299.63Z"/></g></g></svg>