<svg id="Layer_1" data-name="Layer 1" xmlns="http://www.w3.org/2000/svg" viewBox="0 0 851.46 804.68"><defs><style>.cls-1{fill:#262d2f;}.cls-2{fill:#faa51a;}</style></defs><g id="Layer_2" data-name="Layer 2"><g id="Search"><path id="Caminho_17" data-name="Caminho 17" class="cls-1" d="M752.08,684.82l-144.3-144.3a37.92,37.92,0,0,0-53.43,0c-94.87,91.71-246.13,89.15-337.83-5.72S127.37,288.67,222.24,197s246.12-89.15,337.83,5.72a238.89,238.89,0,0,1,61.49,114.43,241.83,241.83,0,0,1-2.46,113.4,34.23,34.23,0,1,0,66.14,17.64c43.76-164.37-54-333.1-218.39-376.87S133.75,125.31,90,289.68s54,333.1,218.38,376.86A308,308,0,0,0,579.7,609.67l123.93,123.8a34.3,34.3,0,1,0,49.12-47.89l-.75-.74Z"/><path id="Caminho_18" data-name="Caminho 18" class="cls-2" d="M490.54,471.52a33.62,33.62,0,0,0-41-3.7,116.41,116.41,0,0,1-118.34,2.33A33,33,0,0,0,292,474.67l-2,1.89a32.93,32.93,0,0,0,5.68,52.07,185.16,185.16,0,0,0,191.31-3.79,32.93,32.93,0,0,0,10.3-45.42,32.51,32.51,0,0,0-4.61-5.78Z"/></g></g></svg>