<svg id="Layer_1" data-name="Layer 1" xmlns="http://www.w3.org/2000/svg" viewBox="0 0 851.46 804.68"><defs><style>.cls-1{fill:#e9e5e4;}.cls-2{fill:#faa51a;}</style></defs><g id="Layer_2" data-name="Layer 2"><g id="Heart"><path id="Caminho_36" data-name="Caminho 36" class="cls-1" d="M695.6,183.06a169.14,169.14,0,0,0-238.59,0L440.89,199.3l-15.67-16.16a169,169,0,0,0-238.95,0,173.88,173.88,0,0,0,3.39,242.55l12.25,12.25L407.29,643.81a47.51,47.51,0,0,0,67.11,0L679.92,438.3l12.26-12.25A174.44,174.44,0,0,0,695.6,183.06ZM683.35,309.57a112.77,112.77,0,0,1-33.93,71.88L636.6,395l-196,195.9L244.65,395l-12.49-13a113,113,0,0,1-34-71.89A107.77,107.77,0,0,1,298.43,195.39a109.14,109.14,0,0,1,14.24,0,112.31,112.31,0,0,1,71.85,34.17l13.11,13,22.58,22.72,32.33,32.33a32,32,0,0,0,45.19-45.31L486.1,240l13.71-13.12a107.78,107.78,0,0,1,183.71,83.17Z"/><rect id="Retângulo_27" data-name="Retângulo 27" class="cls-2" x="306.12" y="303.42" width="61.24" height="138.89" rx="30.61" transform="translate(-165.03 347.32) rotate(-45)"/></g></g></svg>